<svg width="40" height="40" viewBox="0 0 40 40" fill="none" xmlns="http://www.w3.org/2000/svg">
<path d="M32.5926 0H7.40741C3.31641 0 0 3.31641 0 7.40741V32.5926C0 36.6836 3.31641 40 7.40741 40H32.5926C36.6836 40 40 36.6836 40 32.5926V7.40741C40 3.31641 36.6836 0 32.5926 0Z" fill="black"/>
<path d="M32.5926 0.740746H7.40739C3.72549 0.740746 0.740723 3.72551 0.740723 7.40741V32.5926C0.740723 36.2745 3.72549 39.2593 7.40739 39.2593H32.5926C36.2745 39.2593 39.2592 36.2745 39.2592 32.5926V7.40741C39.2592 3.72551 36.2745 0.740746 32.5926 0.740746Z" stroke="#DFDFDF"/>
<rect x="16" y="6" width="8" height="28" fill="white"/>
<rect x="6" y="24" width="8" height="28" transform="rotate(-90 6 24)" fill="white"/>
</svg>
