<svg width="27" height="27" viewBox="0 0 27 27" fill="none" xmlns="http://www.w3.org/2000/svg">
<path d="M22 0H5C2.23858 0 0 2.23858 0 5V22C0 24.7614 2.23858 27 5 27H22C24.7614 27 27 24.7614 27 22V5C27 2.23858 24.7614 0 22 0Z" fill="black"/>
<path d="M22 0.5H5C2.51472 0.5 0.5 2.51472 0.5 5V22C0.5 24.4853 2.51472 26.5 5 26.5H22C24.4853 26.5 26.5 24.4853 26.5 22V5C26.5 2.51472 24.4853 0.5 22 0.5Z" stroke="#707070"/>
<path d="M6.4248 6.42859L20.5677 20.5714" stroke="white" stroke-width="3"/>
<path d="M20.5683 6.42859L6.42544 20.5714" stroke="white" stroke-width="3"/>
</svg>
