<svg width="27" height="27" viewBox="0 0 27 27" fill="none" xmlns="http://www.w3.org/2000/svg">
<g clip-path="url(#clip0)">
<path d="M22 0H5C2.23858 0 0 2.23858 0 5V22C0 24.7614 2.23858 27 5 27H22C24.7614 27 27 24.7614 27 22V5C27 2.23858 24.7614 0 22 0Z" fill="black"/>
<path d="M22 0.5H5C2.51472 0.5 0.5 2.51472 0.5 5V22C0.5 24.4853 2.51472 26.5 5 26.5H22C24.4853 26.5 26.5 24.4853 26.5 22V5C26.5 2.51472 24.4853 0.5 22 0.5Z" stroke="#707070"/>
<path d="M9.016 22.056C9.016 21.848 8.976 21.744 8.896 21.744L8.344 22.008C8.344 21.896 8.28 21.816 8.152 21.768L7.96 21.744C7.832 21.744 7.672 21.8 7.48 21.912C7.448 21.832 7.408 21.752 7.36 21.672C7.312 21.592 7.272 21.52 7.24 21.456C7.032 21.056 6.824 20.616 6.616 20.136C6.424 19.64 6.24 19.168 6.064 18.72C5.904 18.272 5.776 17.92 5.68 17.664C5.616 17.456 5.544 17.144 5.464 16.728C5.384 16.312 5.304 15.784 5.224 15.144C5.4 15.256 5.536 15.312 5.632 15.312C5.744 15.312 5.848 15.144 5.944 14.808C5.992 14.872 6.08 14.904 6.208 14.904C6.304 14.904 6.376 14.872 6.424 14.808L6.808 14.232L7.24 14.376H7.264C7.296 14.376 7.328 14.36 7.36 14.328C7.392 14.296 7.44 14.264 7.504 14.232C7.632 14.152 7.728 14.112 7.792 14.112L7.864 14.136C8.264 14.328 8.52 14.68 8.632 15.192C8.92 16.408 9.208 17.016 9.496 17.016C9.784 17.016 10.12 16.712 10.504 16.104C10.696 15.8 10.888 15.448 11.08 15.048C11.288 14.648 11.496 14.2 11.704 13.704C11.736 13.896 11.768 13.992 11.8 13.992C11.88 13.992 12.016 13.792 12.208 13.392C12.416 12.992 12.744 12.44 13.192 11.736C13.448 11.304 13.768 10.816 14.152 10.272C14.552 9.728 14.976 9.168 15.424 8.592C15.872 8.016 16.304 7.472 16.72 6.96C17.152 6.448 17.536 6.008 17.872 5.64C18.208 5.272 18.456 5.032 18.616 4.92C19.224 4.504 19.704 4.104 20.056 3.72C20.04 3.832 20.016 3.936 19.984 4.032C19.968 4.112 19.96 4.168 19.96 4.2C19.96 4.264 19.992 4.296 20.056 4.296L20.728 3.96V4.056C20.728 4.184 20.76 4.248 20.824 4.248C20.872 4.248 20.968 4.176 21.112 4.032C21.256 3.888 21.336 3.784 21.352 3.72L21.304 4.056L22.12 3.576L21.928 4.008C22.184 3.832 22.368 3.744 22.48 3.744C22.544 3.744 22.592 3.784 22.624 3.864C22.656 3.928 22.672 3.992 22.672 4.056C22.672 4.152 22.632 4.264 22.552 4.392C22.472 4.52 22.368 4.672 22.24 4.848C22.144 4.976 21.984 5.168 21.76 5.424C21.552 5.664 21.232 6.024 20.8 6.504C20.368 6.968 19.792 7.616 19.072 8.448C18.88 8.656 18.584 9.024 18.184 9.552C17.784 10.064 17.328 10.664 16.816 11.352C16.32 12.024 15.824 12.704 15.328 13.392C14.832 14.08 14.392 14.704 14.008 15.264C13.624 15.808 13.352 16.216 13.192 16.488L11.704 19.008C11.384 19.552 11.12 20 10.912 20.352C10.704 20.688 10.544 20.92 10.432 21.048C10.192 21.336 9.928 21.592 9.64 21.816L9.424 21.696L9.232 21.816L9.016 22.056Z" fill="white"/>
</g>
<defs>
<clipPath id="clip0">
<rect width="27" height="27" fill="white"/>
</clipPath>
</defs>
</svg>
