<svg width="27" height="27" viewBox="0 0 27 27" fill="none" xmlns="http://www.w3.org/2000/svg">
<path d="M22 0H5C2.23858 0 0 2.23858 0 5V22C0 24.7614 2.23858 27 5 27H22C24.7614 27 27 24.7614 27 22V5C27 2.23858 24.7614 0 22 0Z" fill="black"/>
<path d="M22 0.5H5C2.51472 0.5 0.5 2.51472 0.5 5V22C0.5 24.4853 2.51472 26.5 5 26.5H22C24.4853 26.5 26.5 24.4853 26.5 22V5C26.5 2.51472 24.4853 0.5 22 0.5Z" stroke="#C4C4C4"/>
<path d="M20 5H9C7.89543 5 7 5.89543 7 7V20C7 21.1046 7.89543 22 9 22H20C21.1046 22 22 21.1046 22 20V7C22 5.89543 21.1046 5 20 5Z" fill="white"/>
<g filter="url(#filter0_d)">
<path d="M12.0726 19.9574L4.39136 13.4952L12.0726 7.03204V10.995V11.245H12.3226H18.3123V15.7445H12.3226H12.0726V15.9945V19.9574Z" fill="#707070"/>
<path d="M11.8227 19.4204V15.9945V15.4945H12.3227H18.0624V11.495H12.3227H11.8227V10.995V7.56915L4.77969 13.4952L11.8227 19.4204ZM12.3227 20.4945L4.00305 13.4952L12.3227 6.495V10.995H18.5624V15.9945H12.3227V20.4945Z" fill="#707070"/>
</g>
<defs>
<filter id="filter0_d" x="2.00305" y="6.495" width="16.5593" height="15.9995" filterUnits="userSpaceOnUse" color-interpolation-filters="sRGB">
<feFlood flood-opacity="0" result="BackgroundImageFix"/>
<feColorMatrix in="SourceAlpha" type="matrix" values="0 0 0 0 0 0 0 0 0 0 0 0 0 0 0 0 0 0 127 0"/>
<feOffset dx="-1" dy="1"/>
<feGaussianBlur stdDeviation="0.5"/>
<feColorMatrix type="matrix" values="0 0 0 0 0.168444 0 0 0 0 0.266667 0 0 0 0 0.122222 0 0 0 1 0"/>
<feBlend mode="normal" in2="BackgroundImageFix" result="effect1_dropShadow"/>
<feBlend mode="normal" in="SourceGraphic" in2="effect1_dropShadow" result="shape"/>
</filter>
</defs>
</svg>
