<svg xmlns="http://www.w3.org/2000/svg" xmlns:xlink="http://www.w3.org/1999/xlink" width="27" height="27" viewBox="0 0 27 27"><defs><filter id="a" x="1.5" y="6" width="17.559" height="17" filterUnits="userSpaceOnUse"><feOffset dx="-1" dy="1" input="SourceAlpha"/><feGaussianBlur stdDeviation="0.5" result="b"/><feFlood flood-color="#a54835"/><feComposite operator="in" in2="b"/><feComposite in="SourceGraphic"/></filter></defs><g transform="translate(-229.547 -19.665)"><g transform="translate(229.547 19.665)" fill="#c6823e" stroke="#dfdfdf" stroke-width="1"><rect width="27" height="27" rx="5" stroke="none"/><rect x="0.5" y="0.5" width="26" height="26" rx="4.5" fill="none"/></g><rect width="15" height="17" rx="2" transform="translate(236.547 24.665)" fill="#aeb1be"/><g transform="translate(-0.5 -2)"><g transform="matrix(1, 0, 0, 1, 230.05, 21.66)" filter="url(#a)"><g transform="translate(4 6.5)" fill="#a54835"><path d="M 8.069600105285645 13.46247577667236 L 0.3883151710033417 7.000191211700439 L 8.069600105285645 0.5370762348175049 L 8.069600105285645 4.5 L 8.069600105285645 4.75 L 8.319600105285645 4.75 L 14.30930042266846 4.75 L 14.30930042266846 9.249500274658203 L 8.319600105285645 9.249500274658203 L 8.069600105285645 9.249500274658203 L 8.069600105285645 9.499500274658203 L 8.069600105285645 13.46247577667236 Z" stroke="none"/><path d="M 7.819600105285645 12.9254322052002 L 7.819600105285645 9.499500274658203 L 7.819600105285645 8.999500274658203 L 8.319600105285645 8.999500274658203 L 14.05930042266846 8.999500274658203 L 14.05930042266846 5 L 8.319600105285645 5 L 7.819600105285645 5 L 7.819600105285645 4.5 L 7.819600105285645 1.074154019355774 L 0.7766420245170593 7.000174045562744 L 7.819600105285645 12.9254322052002 M 8.319600105285645 13.9995002746582 L 2.113342247866967e-07 7.000200271606445 L 8.319600105285645 1.373290956507844e-07 L 8.319600105285645 4.5 L 14.55930042266846 4.5 L 14.55930042266846 9.499500274658203 L 8.319600105285645 9.499500274658203 L 8.319600105285645 13.9995002746582 Z" stroke="none" fill="#dfdfdf"/></g></g></g></g></svg>