<svg xmlns="http://www.w3.org/2000/svg" xmlns:xlink="http://www.w3.org/1999/xlink" width="153.328" height="90.578" viewBox="0 0 153.328 90.578"><defs><filter id="a" x="119.328" y="56.578" width="34" height="34" filterUnits="userSpaceOnUse"><feOffset dx="-1" dy="1" input="SourceAlpha"/><feGaussianBlur stdDeviation="0.5" result="b"/><feFlood/><feComposite operator="in" in2="b"/><feComposite in="SourceGraphic"/></filter></defs><g transform="translate(88.828 -90.922)"><path d="M29.32-31.687a.637.637,0,0,1-.211.48,1.966,1.966,0,0,1-.5.34q-.293.141-.6.258t-.516.211a1.394,1.394,0,0,0-.316.211q-.129.117-.258.246a1.533,1.533,0,0,1-.281.223,1.642,1.642,0,0,1-.387.164,2.432,2.432,0,0,1-.539.07,2.708,2.708,0,0,0-.445.035.758.758,0,0,0-.375.176,1.478,1.478,0,0,0-.328.492,2.571,2.571,0,0,0-.2.715,5,5,0,0,1-.176.785,1.755,1.755,0,0,1-.34.633.865.865,0,0,1-.691.258.965.965,0,0,0,.176.527q.176.27.375.527a5.764,5.764,0,0,1,.363.527,1.012,1.012,0,0,1,.164.527,1.288,1.288,0,0,1-.117.539A1.288,1.288,0,0,0,24-23.2l-.023,1.43a2.037,2.037,0,0,0,.176.926,2.352,2.352,0,0,1,.2.949,1.369,1.369,0,0,1-.117.551,1.424,1.424,0,0,0-.117.574,9.729,9.729,0,0,0,.2,1.957,9.962,9.962,0,0,1,.2,2,9.959,9.959,0,0,1-.117,1.465,2.646,2.646,0,0,1-.562,1.324,1.39,1.39,0,0,0,.141.551q.117.223.234.469t.223.539a2.291,2.291,0,0,1,.105.762,9.9,9.9,0,0,1-.082,1.113,6.9,6.9,0,0,1-.293,1.336,3.816,3.816,0,0,1-.574,1.125,1.114,1.114,0,0,1-.926.48.26.26,0,0,1-.082-.012.26.26,0,0,0-.082-.012l-.023.141v.07a.933.933,0,0,0,.2.586.933.933,0,0,1,.2.586.77.77,0,0,1-.2.422,5.7,5.7,0,0,1-.48.539q-.281.281-.574.539t-.48.445a1.758,1.758,0,0,0-.316.41,3.48,3.48,0,0,1-.211.352.9.9,0,0,1-.281.258,1.715,1.715,0,0,1-.527.176A4.16,4.16,0,0,0,18.727-.8q-.469.234-.914.48a5.954,5.954,0,0,1-.961.422,3.87,3.87,0,0,1-1.242.176,3.177,3.177,0,0,1-.773-.094q-.375-.094-.75-.223t-.762-.223a3.225,3.225,0,0,0-.762-.094,5.012,5.012,0,0,0-.6.035,5.012,5.012,0,0,1-.6.035A2.155,2.155,0,0,1,11-.3a.607.607,0,0,1-.293-.187,1.059,1.059,0,0,0-.363-.258Q10.1-.867,9.82-.973T9.258-1.16q-.281-.082-.469-.129a2.005,2.005,0,0,1-.809-.469,4.71,4.71,0,0,1-.7-.809,7.773,7.773,0,0,1-.562-.949,7.908,7.908,0,0,1-.387-.891,8.4,8.4,0,0,1-.4-1.629Q5.812-6.867,5.742-7.7T5.59-9.363A10.933,10.933,0,0,0,5.3-11.016q-.094-.328-.2-.668a2.32,2.32,0,0,1-.105-.691,2.687,2.687,0,0,1,.047-.5q.047-.246.094-.5.188-.984.293-1.992a19.353,19.353,0,0,0,.105-2.016q0-1.336-.129-2.648t-.129-2.648q0-.258,0-.492t.023-.492a4.064,4.064,0,0,1,.2-.914,2.805,2.805,0,0,0,.152-.914.958.958,0,0,0-.047-.3q-.047-.141-.094-.3a3.461,3.461,0,0,1-.328-1.113q-.047-.5-.094-1.16a2.911,2.911,0,0,0-.41-1.43,1.8,1.8,0,0,0-.8-.609,7.3,7.3,0,0,0-1.055-.316,3.273,3.273,0,0,1-1.207-.6,1.133,1.133,0,0,1-.316-.293.639.639,0,0,1-.129-.387.855.855,0,0,1,.41-.68,3.444,3.444,0,0,1,.973-.492A8.523,8.523,0,0,1,3.68-33.48a5.073,5.073,0,0,1,.867-.105,2.676,2.676,0,0,1,.715.094,2.676,2.676,0,0,0,.715.094,5.969,5.969,0,0,0,1.453-.176,5.969,5.969,0,0,1,1.453-.176,5.724,5.724,0,0,1,.938.117,8.441,8.441,0,0,1,1.266.34,5.085,5.085,0,0,1,1.113.539.88.88,0,0,1,.48.715,1.679,1.679,0,0,1-.316.973,5.08,5.08,0,0,1-.785.879q-.469.422-1.02.867a9.149,9.149,0,0,0-1.02.961,4.97,4.97,0,0,0-.785,1.16,3.227,3.227,0,0,0-.316,1.441q0,.469.035.949t.035.949a9.782,9.782,0,0,1-.176,1.852,9.907,9.907,0,0,0-.176,1.875,4.112,4.112,0,0,0,.223,1.395,3.116,3.116,0,0,1,.223.973,2.751,2.751,0,0,1-.082.691,2.652,2.652,0,0,0-.082.668q0,.164.012.3t.012.3a1.5,1.5,0,0,1-.105.609,3.528,3.528,0,0,1-.223.422q-.117.188-.234.352a.629.629,0,0,0-.117.375,2.133,2.133,0,0,1,.234-.164.492.492,0,0,1,.258-.07.312.312,0,0,1,.258.117,1.006,1.006,0,0,1,.152.27,1.442,1.442,0,0,1,.082.328,2.289,2.289,0,0,1,.023.293,4.138,4.138,0,0,0,.176,1.2,4.138,4.138,0,0,1,.176,1.2,6.486,6.486,0,0,1-.094,1.09,6.623,6.623,0,0,0-.094,1.113,5.648,5.648,0,0,0,.082,1,1.057,1.057,0,0,0,.621.738.636.636,0,0,1,.211.281q.117.234.246.5t.27.539a1.266,1.266,0,0,0,.281.387,2.66,2.66,0,0,0,.609.422q.328.164.668.316t.656.328a2.07,2.07,0,0,1,.574.48,2.085,2.085,0,0,0,.539.457q.328.2.645.422a3.329,3.329,0,0,1,.551.48.906.906,0,0,1,.234.633,1.1,1.1,0,0,1,.094-.492.711.711,0,0,1,.023.211.382.382,0,0,1-.094.281,1.159,1.159,0,0,0,.164-.234l.188-.328a2.193,2.193,0,0,1,.188-.281.269.269,0,0,1,.211-.117.467.467,0,0,1,.3.117.378.378,0,0,1,.141.3,1.084,1.084,0,0,1-.094.445,1.443,1.443,0,0,0-.117.445,1.215,1.215,0,0,0,.48-.105,2.069,2.069,0,0,0,.457-.27,1.334,1.334,0,0,0,.34-.387.943.943,0,0,0,.129-.48q0-.3-.176-.387a1.022,1.022,0,0,0-.434-.082,2.747,2.747,0,0,0-.363.023A2.747,2.747,0,0,1,16.219-3h-.07a1.471,1.471,0,0,1,.352-.586,2.058,2.058,0,0,1,.539-.387,4.474,4.474,0,0,1,.633-.258q.328-.105.633-.223a2.146,2.146,0,0,0,.8-.5,6.525,6.525,0,0,0,.563-.668q.258-.352.516-.715a3.391,3.391,0,0,1,.633-.668,2.164,2.164,0,0,0,.023-.3v-.281q0-.492-.035-.973t-.035-.973a3.948,3.948,0,0,1,.152-1.078A3.948,3.948,0,0,0,21.07-11.7a3.443,3.443,0,0,0-.117-.9,3.443,3.443,0,0,1-.117-.9,3.014,3.014,0,0,1,.117-.832,3.014,3.014,0,0,0,.117-.832,7.388,7.388,0,0,0-.117-1.324,7.257,7.257,0,0,1-.117-1.3,9.743,9.743,0,0,1,.152-1.734,9.61,9.61,0,0,0,.152-1.711,12.1,12.1,0,0,0-.2-2.2,12.1,12.1,0,0,1-.2-2.2q0-.164.012-.434a3.185,3.185,0,0,1,.07-.539A1.582,1.582,0,0,1,21-27.082a.382.382,0,0,1,.352-.2,1.1,1.1,0,0,1-.527-.293,5.608,5.608,0,0,1-.609-.609,6.5,6.5,0,0,1-.516-.68,1.1,1.1,0,0,1-.223-.527q-.117.023-.223.035a2.018,2.018,0,0,1-.223.012,1.657,1.657,0,0,1-.621-.117q-.293-.117-.574-.246t-.586-.246a1.813,1.813,0,0,0-.656-.117h-.117a5.948,5.948,0,0,0-.293-1.125,3.286,3.286,0,0,1-.2-1.148,1.1,1.1,0,0,1,.246-.75,1.62,1.62,0,0,1,.621-.434,2.992,2.992,0,0,1,.809-.2,7.368,7.368,0,0,1,.785-.047,11.666,11.666,0,0,1,1.289.07,11.665,11.665,0,0,0,1.289.07,1.929,1.929,0,0,0,.914-.223,1.882,1.882,0,0,1,.891-.223,1.534,1.534,0,0,1,.539.105q.281.105.574.246t.6.27a2.61,2.61,0,0,0,.586.176,6.089,6.089,0,0,0,.949.07q.5,0,1,.047a5.106,5.106,0,0,1,.938.176,2.143,2.143,0,0,1,.82.457,2.233,2.233,0,0,1,.34.375A.782.782,0,0,1,29.32-31.687ZM70.57-9.7q0,.164.012.434t0,.539a4.395,4.395,0,0,1-.047.492.569.569,0,0,1-.129.316.966.966,0,0,1-.445.27,2.458,2.458,0,0,1-.48.07q-.246.012-.492.047a1.282,1.282,0,0,0-.48.176.348.348,0,0,0,.223.293,2.631,2.631,0,0,0,.375.094.877.877,0,0,1,.352.141.468.468,0,0,1,.152.41,1.866,1.866,0,0,1-.152.809,2.576,2.576,0,0,1-.363.563q-.211.246-.422.5a1.847,1.847,0,0,0-.328.656,1.393,1.393,0,0,1-.352.609,1.685,1.685,0,0,1-.457.293q-.246.105-.5.223a1.344,1.344,0,0,0-.492.422q-.258.281-.422.281a.689.689,0,0,1-.164-.023.986.986,0,0,0-.234-.023.357.357,0,0,0-.223.082.245.245,0,0,0-.105.2.041.041,0,0,0,.047.047q.047,0,.023.023a4.261,4.261,0,0,1-1.008.6,13.322,13.322,0,0,1-1.664.633,18.366,18.366,0,0,1-1.957.492,10.1,10.1,0,0,1-1.934.2Q57.3.164,55.746.082T52.57,0H49.453q-.07,0-.2.141a.389.389,0,0,1-.293.141,4.127,4.127,0,0,1-.668-.07,3.809,3.809,0,0,1-.809-.234,2.612,2.612,0,0,1-.691-.41.733.733,0,0,1-.293-.574.733.733,0,0,1,.023-.2q.023-.082.047-.2a2.236,2.236,0,0,1,.586-1,4.534,4.534,0,0,1,.809-.586l.891-.5a2.753,2.753,0,0,0,.82-.727,3.82,3.82,0,0,0,.6-1.266,7.813,7.813,0,0,0,.234-2.133,19.075,19.075,0,0,0-.152-2.414,19.075,19.075,0,0,1-.152-2.414q.023-2.25.105-4.453t.105-4.453l.023-3.68q0-.586-.035-1.359a6.651,6.651,0,0,0-.234-1.488,3.125,3.125,0,0,0-.633-1.219,1.751,1.751,0,0,0-1.23-.574,3.291,3.291,0,0,1-.914-.211,4.26,4.26,0,0,1-.973-.5,3.841,3.841,0,0,1-.785-.715,1.336,1.336,0,0,1-.328-.867.982.982,0,0,1,.234-.668,1.97,1.97,0,0,1,.563-.445,2.685,2.685,0,0,1,.715-.258,3.462,3.462,0,0,1,.715-.082,7.176,7.176,0,0,1,1.477.152,7.291,7.291,0,0,0,1.5.152q.961,0,1.934-.094t1.934-.223q.961-.129,1.934-.223t1.957-.094q.82,0,1.641.059t1.641.105a.988.988,0,0,0,.492.3q.352.117.762.211t.809.152q.4.059.609.105.563.117.973.246a2.281,2.281,0,0,1,.7.352,2.166,2.166,0,0,1,.516.574,4.219,4.219,0,0,1,.41.914q.023.07.223.211a4.683,4.683,0,0,0,.457.281q.258.141.492.281a1.813,1.813,0,0,1,.328.234,3.7,3.7,0,0,1,.621.926,12.064,12.064,0,0,1,.574,1.324,12.624,12.624,0,0,1,.422,1.383,4.927,4.927,0,0,1,.164,1.1,6.327,6.327,0,0,1-.246,1.734q-.246.867-.5,1.688a3.554,3.554,0,0,1-.48.938q-.316.445-.621.9a7.372,7.372,0,0,0-.527.926,2.267,2.267,0,0,0-.223.984,3.732,3.732,0,0,0,.3,1.453,8.3,8.3,0,0,0,.7,1.336,3.6,3.6,0,0,0,.387.539q.223.258.445.5a5.16,5.16,0,0,1,.41.516,3.362,3.362,0,0,1,.328.6,5.939,5.939,0,0,1,.4,1.559A13.93,13.93,0,0,1,70.57-9.7Zm-4.43-14.32a3.169,3.169,0,0,0-.07-.609q-.07-.352-.164-.715l-.187-.727q-.094-.363-.141-.645a1.7,1.7,0,0,0-.211-.574,1.531,1.531,0,0,0-.328-.375,4.931,4.931,0,0,0-.422-.3,3.8,3.8,0,0,1-.469-.363,6.782,6.782,0,0,0-1.125-.82,5.042,5.042,0,0,0-1.125-.469,6.863,6.863,0,0,0-1.242-.223Q60-29.906,59.2-29.906q-.516,0-1.066.023a4.708,4.708,0,0,0-1,.141.214.214,0,0,0-.117.117.332.332,0,0,1-.105.141.8.8,0,0,1-.293.129,2.668,2.668,0,0,1-.656.059,2.827,2.827,0,0,0-1.113.188,1.6,1.6,0,0,0-.68.527,2.047,2.047,0,0,0-.34.82,7.167,7.167,0,0,0-.117,1.09q-.023.773-.035,1.594T53.6-23.449a11.705,11.705,0,0,1-.246,1.582,6.309,6.309,0,0,1-.551,1.5,25.21,25.21,0,0,0,2.672.516,19.54,19.54,0,0,0,2.672.188q.914,0,1.84-.07a17.217,17.217,0,0,0,1.816-.234,8.28,8.28,0,0,0,.879-.258,7.261,7.261,0,0,0,1.078-.469,5.177,5.177,0,0,0,.938-.633,1.18,1.18,0,0,0,.457-.727,1.34,1.34,0,0,1,.2-.516q.152-.234.328-.457A4.347,4.347,0,0,0,66-23.484,1.027,1.027,0,0,0,66.141-24.023Zm.773,15.656a5.008,5.008,0,0,0-.152-1.219q-.152-.609-.246-1.219-.07-.562-.129-.891a1.984,1.984,0,0,0-.187-.574,2,2,0,0,0-.363-.48q-.234-.234-.68-.609a1.193,1.193,0,0,0-.246-.609.452.452,0,0,0-.27-.094q-.117,0-.246.012t-.246.012L63.82-14.7a6.23,6.23,0,0,0-.785-.469,2.545,2.545,0,0,0-.879-.211,4.747,4.747,0,0,1-.926-.187,3.209,3.209,0,0,0-.949-.141.38.38,0,0,0-.328.164q-.117.164-.187.164a1.122,1.122,0,0,1-.328-.059q-.187-.059-.4-.117t-.434-.117a1.621,1.621,0,0,0-.41-.059,9.373,9.373,0,0,0-2.051.223q-1,.223-2,.48-.187.492-.363,1.078t-.316,1.2q-.141.609-.234,1.207a7.211,7.211,0,0,0-.094,1.113,1.442,1.442,0,0,0,.047.41,1.219,1.219,0,0,0,.117.27,1.64,1.64,0,0,1,.117.234.757.757,0,0,1,.047.281,8.509,8.509,0,0,1-.2,1.84,8.509,8.509,0,0,0-.2,1.84,4.164,4.164,0,0,0,.164,1.172,2.784,2.784,0,0,0,.563,1.031,2.292,2.292,0,0,1,.891.176A2.292,2.292,0,0,0,55.57-3a1.386,1.386,0,0,0,.645-.164,1.192,1.192,0,0,1,.5-.164.331.331,0,0,1,.293.164A.4.4,0,0,0,57.375-3h.094a.54.54,0,0,1,.258-.2,1.67,1.67,0,0,1,.434-.117q.246-.035.527-.047t.539-.012q.492,0,.762.023t.621.023a16.415,16.415,0,0,0,1.875-.516A12.075,12.075,0,0,0,64.02-4.5a3.791,3.791,0,0,0,1.23-.937q.234-.234.527-.586a7.139,7.139,0,0,0,.539-.738,5.569,5.569,0,0,0,.422-.8A2.042,2.042,0,0,0,66.914-8.367ZM102.82-1.477a1.794,1.794,0,0,1-.27.891,3.724,3.724,0,0,1-.68.855,4.3,4.3,0,0,1-.879.645,1.854,1.854,0,0,1-.891.258,8.682,8.682,0,0,1-1.43-.117A8.827,8.827,0,0,0,97.219.938,8.03,8.03,0,0,1,96.41.891a1.054,1.054,0,0,1-.645-.234,1.262,1.262,0,0,1-.8-.41,4.24,4.24,0,0,1-.457-.691q-.2-.375-.422-.727a1.177,1.177,0,0,0-.668-.492q-1.336.586-2.355,1.125T89.051.41a12.584,12.584,0,0,1-2.133.656,12.955,12.955,0,0,1-2.707.246,4.68,4.68,0,0,1-.973-.07.92.92,0,0,1-.445-.223,1.567,1.567,0,0,1-.281-.41,2.918,2.918,0,0,0-.48-.633.741.741,0,0,0-.363-.223,1.732,1.732,0,0,0-.34-.035h-.117a.9.9,0,0,1-.387-.082q-.176-.082-.27-.457a2.563,2.563,0,0,0-.281-.645q-.211-.363-.48-.738a7.171,7.171,0,0,0-.551-.68,3.328,3.328,0,0,0-.516-.469L78.7-5.672q-.023-2.344.141-4.641t.164-4.641q0-.352-.023-.973t-.105-1.254a4.748,4.748,0,0,0-.281-1.137.884.884,0,0,0-.551-.6,4.647,4.647,0,0,0-1.09-.105q-.551.012-1.09-.012a4.612,4.612,0,0,1-1.043-.164,2.1,2.1,0,0,1-.949-.609,3.2,3.2,0,0,1-.48-.633,1.5,1.5,0,0,1-.223-.773,1.243,1.243,0,0,1,.5-1,4.165,4.165,0,0,1,1.207-.668,7.712,7.712,0,0,1,1.43-.375,7.717,7.717,0,0,1,1.172-.117,7.694,7.694,0,0,1,2.449.387,5.958,5.958,0,0,1,2.121,1.254.135.135,0,0,1,.047.094.068.068,0,0,1-.023.047,9.81,9.81,0,0,0,.188,1.348,6.524,6.524,0,0,1,.141,1.348,2.285,2.285,0,0,1-.105.7,2.365,2.365,0,0,0-.105.727,3.469,3.469,0,0,0,.094.8,3.469,3.469,0,0,1,.094.8,2.877,2.877,0,0,1-.047.516,2.877,2.877,0,0,0-.047.516,6.121,6.121,0,0,0,.164,1.418A6.121,6.121,0,0,1,82.617-12a5.354,5.354,0,0,1-.141,1.23q-.141.6-.316,1.207t-.316,1.207a5.354,5.354,0,0,0-.141,1.23,3.762,3.762,0,0,0,.352,1.617,4.23,4.23,0,0,0,.938,1.3,4.431,4.431,0,0,0,1.348.867,4.144,4.144,0,0,0,1.605.316,3.821,3.821,0,0,0,1.184-.152,3.121,3.121,0,0,0,.738-.34,4.635,4.635,0,0,0,.457-.34.551.551,0,0,1,.363-.152,1.514,1.514,0,0,1,.34.035,1.4,1.4,0,0,0,.316.035.953.953,0,0,0,.539-.141,2.206,2.206,0,0,0,.387-.328q.176-.187.352-.363a.959.959,0,0,1,.457-.246,3.993,3.993,0,0,0,.938-.316.838.838,0,0,0,.4-.832.6.6,0,0,1,.035-.211q.035-.094.223-.094a.239.239,0,0,1,.176.059.522.522,0,0,0,.176.105.493.493,0,0,0,.164-.258,2.95,2.95,0,0,1,.094-.281,1.738,1.738,0,0,1,.434-.75,1.26,1.26,0,0,0,.363-.75,2.637,2.637,0,0,1,.234-.867,1.958,1.958,0,0,0,.188-.844,1.2,1.2,0,0,0-.211-.7,1.245,1.245,0,0,1-.211-.727,2.654,2.654,0,0,1,.176-.937,2.654,2.654,0,0,0,.176-.937,3.569,3.569,0,0,1-.27-.422.965.965,0,0,1-.129-.469.723.723,0,0,1,.141-.527.369.369,0,0,0,.141-.27,1.009,1.009,0,0,0-.105-.434,3.423,3.423,0,0,0-.246-.434,3.93,3.93,0,0,1-.246-.422.983.983,0,0,1-.105-.445,1.312,1.312,0,0,1,.082-.457,1.379,1.379,0,0,0,.082-.48,1.273,1.273,0,0,0-.176-.668,1.68,1.68,0,0,0-.445-.492,2.027,2.027,0,0,0-.609-.3,4.31,4.31,0,0,0-.668-.152,8.638,8.638,0,0,0-1.008-.07,2.337,2.337,0,0,1-.738-.105,1.448,1.448,0,0,1-.586-.387,3.276,3.276,0,0,1-.551-.914,1.645,1.645,0,0,1-.164-.633,1.042,1.042,0,0,1,.5-.9,3.8,3.8,0,0,1,1.184-.516,8.249,8.249,0,0,1,1.371-.234q.691-.059,1.09-.059a4.629,4.629,0,0,1,.738.059,4.629,4.629,0,0,0,.738.059,2.126,2.126,0,0,0,.785-.152,2.126,2.126,0,0,1,.785-.152,1.314,1.314,0,0,1,.914.316,2.139,2.139,0,0,1,.551.82,4.425,4.425,0,0,1,.27,1.148,11.986,11.986,0,0,1,.07,1.3q0,.867-.059,1.641t-.059,1.242a8.523,8.523,0,0,0,.2,1.887,7.4,7.4,0,0,1,.2,1.629,1.134,1.134,0,0,1-.105.469q-.105.234-.223.469t-.223.469a1.134,1.134,0,0,0-.105.469.725.725,0,0,0,.07.328L97.688-9.8a.37.37,0,0,0-.141.234,1.578,1.578,0,0,0-.023.258,3.341,3.341,0,0,0,.082.738,3.449,3.449,0,0,1,.082.762,4.147,4.147,0,0,1-.094.879,4.147,4.147,0,0,0-.094.879,1.969,1.969,0,0,0,.738,1.652,2.76,2.76,0,0,0,1.746.574,3.539,3.539,0,0,0,1.125-.187,1.969,1.969,0,0,0,.457.621l.574.527a2.671,2.671,0,0,1,.48.586A1.508,1.508,0,0,1,102.82-1.477Zm24.07.82a.6.6,0,0,0-.527.34q-.129.293-.27.6a.858.858,0,0,1-.434.41,3.051,3.051,0,0,1-.727.234,6.053,6.053,0,0,1-.891.105q-.48.023-.9.023-1.242,0-2.449-.082T118.266.785q-1.219-.105-2.426-.2T113.414.492a12.459,12.459,0,0,0-2.426.234,12.218,12.218,0,0,1-2.379.234,3.935,3.935,0,0,1-.68-.094,7.474,7.474,0,0,1-.949-.258,6.916,6.916,0,0,1-.855-.352q-.375-.187-.375-.4,0-.445.012-.914a5.6,5.6,0,0,1,.094-.9,3.17,3.17,0,0,1,.281-.832,2.556,2.556,0,0,1,.551-.727,1.1,1.1,0,0,0,.352-.434q.07-.2.141-.363a.928.928,0,0,1,.2-.293,1.511,1.511,0,0,1,.527-.27q.094-.023.211-.223t.258-.445q.141-.246.27-.469a2.86,2.86,0,0,1,.223-.34,17.473,17.473,0,0,1,1.23-1.289q.645-.609,1.3-1.219a11.216,11.216,0,0,0,1.289-1.43,16.186,16.186,0,0,1,1.266-1.477,11,11,0,0,1,1.3-1.113,8.128,8.128,0,0,0,1.277-1.16,4.431,4.431,0,0,0,.457-.574l.352-.539a4.135,4.135,0,0,1,.4-.516,4.245,4.245,0,0,1,.6-.527,1.577,1.577,0,0,0,.352-.4,6.646,6.646,0,0,0,.4-.656,5.975,5.975,0,0,0,.316-.691,1.622,1.622,0,0,0,.129-.527.724.724,0,0,0-.258-.574,2.1,2.1,0,0,0-.621-.363,3.1,3.1,0,0,0-.75-.187,5.53,5.53,0,0,0-.645-.047,1.812,1.812,0,0,0-.656.117,1.687,1.687,0,0,1-.609.117,2.006,2.006,0,0,1-.68-.117,1.94,1.94,0,0,0-.656-.117,1.192,1.192,0,0,0-.234.023,1.336,1.336,0,0,0-.234.07,4.01,4.01,0,0,1-.785.129q-.457.035-.926.082t-.879.129a1.71,1.71,0,0,0-.645.246,4.705,4.705,0,0,0-.75.68,2.673,2.673,0,0,0-.422.645,2.426,2.426,0,0,0-.187.645,4.978,4.978,0,0,0-.047.7q0,.3.012.645t.012.738a1.994,1.994,0,0,1-.422,1.324,1.616,1.616,0,0,1-1.312.5,1.142,1.142,0,0,1-.844-.328,2.162,2.162,0,0,1-.5-.832,4.727,4.727,0,0,1-.234-1.09q-.059-.586-.059-1.113t.023-.891q.023-.363.023-.41,0-.609.035-1.277a7.163,7.163,0,0,1,.176-1.266,4.618,4.618,0,0,1,.4-1.09,2.051,2.051,0,0,1,.68-.773q.211-.141.48-.293t.563-.281a4.4,4.4,0,0,1,.586-.211,2.047,2.047,0,0,1,.551-.082.712.712,0,0,1,.727.492,1.721,1.721,0,0,0,.27.48q.176.223.352.434a4.084,4.084,0,0,1,.316.434,1.045,1.045,0,0,1,.164.457h.117a.713.713,0,0,1,.387.129.65.65,0,0,0,.316.129.2.2,0,0,0,.223-.211q.012-.211.012-.375a.676.676,0,0,0-.164-.48,2.115,2.115,0,0,0-.375-.316,2.974,2.974,0,0,1-.375-.293.562.562,0,0,1-.164-.434l.023-.141a9.986,9.986,0,0,0,1.266.152q.633.035,1.266.035,1.055,0,2.086-.082t2.063-.187q1.031-.105,2.063-.2t2.063-.094q.188,0,.445.012t.527.047a3.543,3.543,0,0,1,.516.105.875.875,0,0,1,.387.211q-.141.164-.328.422a1.024,1.024,0,0,0-.211.492,1.148,1.148,0,0,0,.152.164q.012,0,.129.023a.249.249,0,0,0,.223-.141q.082-.141.152-.293t.129-.293a.19.19,0,0,1,.176-.141q.164,0,.3.223a2.546,2.546,0,0,1,.246.527,4.4,4.4,0,0,1,.164.609,2.681,2.681,0,0,1,.059.469.531.531,0,0,1-.059.293.334.334,0,0,1-.141.117l-.164.07a.385.385,0,0,0-.152.129,2.2,2.2,0,0,0-.281.715,1.783,1.783,0,0,1-.328.715A8.641,8.641,0,0,1,123-17.086q-.727.68-1.453,1.383a4.636,4.636,0,0,0-.586.656q-.258.352-.5.715t-.516.7a7.512,7.512,0,0,1-.574.645,2.794,2.794,0,0,1-.551.422,4.067,4.067,0,0,0-.41.246,1.5,1.5,0,0,0-.34.328,2.547,2.547,0,0,0-.316.668,1.7,1.7,0,0,1-.609.6q-.539.387-1.2.867a14.344,14.344,0,0,0-1.23,1.008,2.611,2.611,0,0,0-.738,1q-.141.4-.316.809t-.328.844q-.152.434-.27.867a3.269,3.269,0,0,0-.117.855,1.282,1.282,0,0,0,.586,1.125,4.284,4.284,0,0,0,1.383.6,8.145,8.145,0,0,0,1.641.234q.844.035,1.336.035l1.523-.023a3.862,3.862,0,0,0,1.992-.469,2.8,2.8,0,0,0,1.043-1.137,4.805,4.805,0,0,0,.445-1.535q.105-.844.164-1.676a11.21,11.21,0,0,1,.211-1.547,2.18,2.18,0,0,1,.621-1.16,1.193,1.193,0,0,1,.234-.023h.234a2.978,2.978,0,0,1,1.148.223q.539.223,1.055.48a7.364,7.364,0,0,1-.176,1.359,6,6,0,0,0-.152,1.313.29.29,0,0,0,.328.328q-.023.4-.176.5a.317.317,0,0,0-.152.27.973.973,0,0,0,.094.34l.211.5a5.241,5.241,0,0,1,.211.621,2.588,2.588,0,0,1,.094.691,6.814,6.814,0,0,1-.047.8,6.814,6.814,0,0,0-.047.8A5.006,5.006,0,0,0,126.891-.656Zm25.383,0a.6.6,0,0,0-.527.34q-.129.293-.27.6a.858.858,0,0,1-.434.41,3.051,3.051,0,0,1-.727.234,6.053,6.053,0,0,1-.891.105q-.48.023-.9.023-1.242,0-2.449-.082T143.648.785q-1.219-.105-2.426-.2T138.8.492a12.459,12.459,0,0,0-2.426.234,12.218,12.218,0,0,1-2.379.234,3.935,3.935,0,0,1-.68-.094,7.474,7.474,0,0,1-.949-.258,6.916,6.916,0,0,1-.855-.352q-.375-.187-.375-.4,0-.445.012-.914a5.6,5.6,0,0,1,.094-.9,3.17,3.17,0,0,1,.281-.832,2.556,2.556,0,0,1,.551-.727,1.1,1.1,0,0,0,.352-.434q.07-.2.141-.363a.928.928,0,0,1,.2-.293,1.511,1.511,0,0,1,.527-.27q.094-.023.211-.223t.258-.445q.141-.246.27-.469a2.86,2.86,0,0,1,.223-.34,17.473,17.473,0,0,1,1.23-1.289q.645-.609,1.3-1.219a11.216,11.216,0,0,0,1.289-1.43,16.186,16.186,0,0,1,1.266-1.477,11,11,0,0,1,1.3-1.113,8.128,8.128,0,0,0,1.277-1.16,4.431,4.431,0,0,0,.457-.574l.352-.539a4.135,4.135,0,0,1,.4-.516,4.245,4.245,0,0,1,.6-.527,1.577,1.577,0,0,0,.352-.4,6.646,6.646,0,0,0,.4-.656,5.975,5.975,0,0,0,.316-.691,1.622,1.622,0,0,0,.129-.527.724.724,0,0,0-.258-.574,2.1,2.1,0,0,0-.621-.363,3.1,3.1,0,0,0-.75-.187,5.53,5.53,0,0,0-.645-.047,1.812,1.812,0,0,0-.656.117,1.687,1.687,0,0,1-.609.117,2.006,2.006,0,0,1-.68-.117,1.94,1.94,0,0,0-.656-.117,1.192,1.192,0,0,0-.234.023,1.336,1.336,0,0,0-.234.07,4.01,4.01,0,0,1-.785.129q-.457.035-.926.082t-.879.129a1.71,1.71,0,0,0-.645.246,4.705,4.705,0,0,0-.75.68,2.673,2.673,0,0,0-.422.645,2.426,2.426,0,0,0-.187.645,4.978,4.978,0,0,0-.047.7q0,.3.012.645t.012.738a1.994,1.994,0,0,1-.422,1.324,1.616,1.616,0,0,1-1.312.5,1.142,1.142,0,0,1-.844-.328,2.162,2.162,0,0,1-.5-.832,4.727,4.727,0,0,1-.234-1.09q-.059-.586-.059-1.113t.023-.891q.023-.363.023-.41,0-.609.035-1.277a7.163,7.163,0,0,1,.176-1.266,4.618,4.618,0,0,1,.4-1.09,2.051,2.051,0,0,1,.68-.773q.211-.141.48-.293t.563-.281a4.4,4.4,0,0,1,.586-.211,2.047,2.047,0,0,1,.551-.082.712.712,0,0,1,.727.492,1.721,1.721,0,0,0,.27.48q.176.223.352.434a4.084,4.084,0,0,1,.316.434,1.045,1.045,0,0,1,.164.457h.117a.713.713,0,0,1,.387.129.65.65,0,0,0,.316.129.2.2,0,0,0,.223-.211q.012-.211.012-.375a.676.676,0,0,0-.164-.48,2.115,2.115,0,0,0-.375-.316,2.974,2.974,0,0,1-.375-.293.562.562,0,0,1-.164-.434l.023-.141a9.986,9.986,0,0,0,1.266.152q.633.035,1.266.035,1.055,0,2.086-.082t2.063-.187q1.031-.105,2.063-.2t2.063-.094q.188,0,.445.012t.527.047a3.543,3.543,0,0,1,.516.105.875.875,0,0,1,.387.211q-.141.164-.328.422a1.024,1.024,0,0,0-.211.492,1.148,1.148,0,0,0,.152.164q.012,0,.129.023a.249.249,0,0,0,.223-.141q.082-.141.152-.293t.129-.293a.19.19,0,0,1,.176-.141q.164,0,.3.223a2.546,2.546,0,0,1,.246.527,4.4,4.4,0,0,1,.164.609,2.681,2.681,0,0,1,.059.469.531.531,0,0,1-.059.293.334.334,0,0,1-.141.117l-.164.07a.385.385,0,0,0-.152.129,2.2,2.2,0,0,0-.281.715,1.783,1.783,0,0,1-.328.715,8.641,8.641,0,0,1-1.289,1.523q-.727.68-1.453,1.383a4.636,4.636,0,0,0-.586.656q-.258.352-.5.715t-.516.7a7.512,7.512,0,0,1-.574.645,2.794,2.794,0,0,1-.551.422,4.067,4.067,0,0,0-.41.246,1.5,1.5,0,0,0-.34.328,2.547,2.547,0,0,0-.316.668,1.7,1.7,0,0,1-.609.6q-.539.387-1.2.867a14.344,14.344,0,0,0-1.23,1.008,2.611,2.611,0,0,0-.738,1q-.141.4-.316.809t-.328.844q-.152.434-.27.867a3.269,3.269,0,0,0-.117.855,1.282,1.282,0,0,0,.586,1.125,4.284,4.284,0,0,0,1.383.6,8.145,8.145,0,0,0,1.641.234q.844.035,1.336.035l1.523-.023a3.862,3.862,0,0,0,1.992-.469,2.8,2.8,0,0,0,1.043-1.137,4.805,4.805,0,0,0,.445-1.535q.105-.844.164-1.676a11.21,11.21,0,0,1,.211-1.547,2.18,2.18,0,0,1,.621-1.16,1.193,1.193,0,0,1,.234-.023h.234a2.978,2.978,0,0,1,1.148.223q.539.223,1.055.48a7.364,7.364,0,0,1-.176,1.359,6,6,0,0,0-.152,1.313.29.29,0,0,0,.328.328q-.023.4-.176.5a.317.317,0,0,0-.152.27.973.973,0,0,0,.094.34l.211.5a5.241,5.241,0,0,1,.211.621,2.588,2.588,0,0,1,.094.691,6.814,6.814,0,0,1-.047.8,6.814,6.814,0,0,0-.047.8A5.006,5.006,0,0,0,152.273-.656ZM27.07,15.531q0,.422-.012.855a4.109,4.109,0,0,1-.105.832,1.385,1.385,0,0,1-.211.457,3.078,3.078,0,0,1-.387.469,2.419,2.419,0,0,1-.48.375.94.94,0,0,1-.469.152.415.415,0,0,1-.445-.281,2.9,2.9,0,0,1-.129-.609,2.482,2.482,0,0,0-.141-.609.454.454,0,0,0-.48-.281.4.4,0,0,0-.2.047.4.4,0,0,1-.2.047q-.047,0-.094-.281t-.117-.68q-.07-.4-.164-.809a4.332,4.332,0,0,0-.211-.691q-.211-.445-.434-.926a2.4,2.4,0,0,1-.223-1.02,1.377,1.377,0,0,1,.141-.645,4.536,4.536,0,0,1,.3-.5q.164-.234.3-.469a1.074,1.074,0,0,0,.141-.562,1.214,1.214,0,0,0-.3-.82A2.361,2.361,0,0,0,22.395,9a4.106,4.106,0,0,0-.961-.328,4.368,4.368,0,0,0-.879-.105,4.962,4.962,0,0,0-1.23.152q-.6.152-1.2.363t-1.184.445a11.513,11.513,0,0,1-1.172.4,2.859,2.859,0,0,1,.152.68q.035.352.035.7,0,.8-.07,1.582t-.07,1.582a15.8,15.8,0,0,0,.094,1.723q.094.855.2,1.7t.2,1.7a15.589,15.589,0,0,1,.094,1.7,5.951,5.951,0,0,1-.352,2.016.918.918,0,0,0-.07.3,1.16,1.16,0,0,0,.117.5q.117.246.27.516a5.123,5.123,0,0,1,.27.551,1.509,1.509,0,0,1,.117.586,1.565,1.565,0,0,1-.094.539,1.5,1.5,0,0,0-.094.516,2.515,2.515,0,0,0,.105.727,2.515,2.515,0,0,1,.105.727q0,.211-.105.258a.6.6,0,0,1-.246.047,2.259,2.259,0,0,0-.246.012.112.112,0,0,0-.105.129,1.521,1.521,0,0,0,.152.668,1.521,1.521,0,0,1,.152.668,1.314,1.314,0,0,1-.129.574,1.314,1.314,0,0,0-.129.574.7.7,0,0,0,.27.539,1.326,1.326,0,0,1,.387.563,7.362,7.362,0,0,1,.2.914,3.179,3.179,0,0,0,.328.984A2.033,2.033,0,0,0,18.07,35a2.953,2.953,0,0,0,1.523.316h.68a6.259,6.259,0,0,1,.691.047,3.921,3.921,0,0,1,.8.176,1.805,1.805,0,0,1,.656.375.8.8,0,0,1,.27.621,1.939,1.939,0,0,1-.141.727,1.939,1.939,0,0,0-.141.727,1.974,1.974,0,0,0,.047.352,1.24,1.24,0,0,0-.621.152.861.861,0,0,0-.387.5,7.7,7.7,0,0,0-.949-.129q-.48-.035-.949-.035A15.936,15.936,0,0,0,17.18,39q-1.172.176-2.355.375t-2.367.375a16.172,16.172,0,0,1-2.379.176q-.4,0-.984-.023a5.28,5.28,0,0,1-1.125-.164,2.6,2.6,0,0,1-.926-.434,1.007,1.007,0,0,1-.387-.855,2.74,2.74,0,0,1,.129-.973.963.963,0,0,1,.316-.445.9.9,0,0,1,.434-.152,2.489,2.489,0,0,0,.48-.094.2.2,0,0,0,.07-.141.245.245,0,0,0-.105-.2.916.916,0,0,0-.223-.129,2.271,2.271,0,0,1,.9-.492,5.708,5.708,0,0,1,1.031-.187l1.066-.094a3.519,3.519,0,0,0,1.008-.234.95.95,0,0,0,.4-.4,5.291,5.291,0,0,0,.387-.727,5.392,5.392,0,0,0,.281-.8,2.6,2.6,0,0,0,.105-.609v-.047q-.164-1.125-.258-2.2t-.094-2.2a1.236,1.236,0,0,1,.07-.316,3.137,3.137,0,0,1,.188-.457,5.659,5.659,0,0,1,.258-.586q-.188-.3-.328-.562-.117-.234-.211-.445a.887.887,0,0,1-.094-.328,1.565,1.565,0,0,1,.094-.539,3.164,3.164,0,0,0,.141-.516,14.069,14.069,0,0,0,.141-1.992,5.876,5.876,0,0,0-.059-.832q-.059-.41-.152-.809a14.131,14.131,0,0,1-.3-2.953,26.748,26.748,0,0,1,.234-3.539,26.749,26.749,0,0,0,.234-3.539,1.8,1.8,0,0,0-.211-.949,1.4,1.4,0,0,0-.82-.527,14.545,14.545,0,0,0-1.7-.375A11.037,11.037,0,0,0,8.32,8.922a6.578,6.578,0,0,0-1.371.152,4.56,4.56,0,0,0-1.312.492,3,3,0,0,0-.984.891,2.246,2.246,0,0,0-.387,1.324,6.232,6.232,0,0,0,.047.773,6.232,6.232,0,0,1,.047.773,1.29,1.29,0,0,1-.152.645,1.068,1.068,0,0,0-.152.527,1.23,1.23,0,0,0,.188.656,1.23,1.23,0,0,1,.188.656,1.48,1.48,0,0,1-.105.516q-.105.281-.246.574t-.27.574a4.037,4.037,0,0,0-.2.516,2.224,2.224,0,0,1-.3.609.676.676,0,0,1-.586.258.962.962,0,0,1-.609-.223.678.678,0,0,1-.281-.551.614.614,0,0,1,.129-.41.544.544,0,0,0,.129-.363,1.345,1.345,0,0,0-.094-.48,4.559,4.559,0,0,0-.223-.492,4.117,4.117,0,0,1-.223-.5,1.5,1.5,0,0,1-.094-.516,1.921,1.921,0,0,1,.105-.633,1.921,1.921,0,0,0,.105-.633,4.416,4.416,0,0,0-.223-1.383,4.416,4.416,0,0,1-.223-1.383,9.557,9.557,0,0,1,.141-1.5,7.138,7.138,0,0,1,.48-1.664A4.222,4.222,0,0,1,2.73,6.777a1.89,1.89,0,0,1,1.395-.551,5.281,5.281,0,0,1,1.16.129,5.387,5.387,0,0,0,1.184.129,7.987,7.987,0,0,0,1.359-.117A7.987,7.987,0,0,1,9.188,6.25a2.5,2.5,0,0,1,.879.152,2.5,2.5,0,0,0,.879.152.865.865,0,0,0,.48-.129.823.823,0,0,1,.457-.129,1.264,1.264,0,0,1,.551.129,1.264,1.264,0,0,0,.551.129,1.587,1.587,0,0,0,.48-.07,1.509,1.509,0,0,1,.457-.07,2.588,2.588,0,0,1,.691.094,2.5,2.5,0,0,0,.668.094l2.836-.352,1.266-.094q.633-.047,1.289-.047a14.33,14.33,0,0,1,2.238.176q1.113.176,2.238.434v.023a1.606,1.606,0,0,1,1.1.8,4.055,4.055,0,0,1,.434,1.395,9.914,9.914,0,0,1,.082,1.605,13.245,13.245,0,0,0,.023,1.406q.07.891.176,1.793A15.433,15.433,0,0,1,27.07,15.531ZM55.43,35.9a2,2,0,0,1-.141.75q-.141.352-.258.727a5.1,5.1,0,0,0-.129.539,1.429,1.429,0,0,1-.105.363.824.824,0,0,1-.223.281,2.525,2.525,0,0,1-.48.293q-.7.375-1.488.762A3.55,3.55,0,0,1,51.023,40a2.69,2.69,0,0,1-1.277-.316,7.8,7.8,0,0,1-1.1-.7q-.5-.387-.914-.715a1.212,1.212,0,0,0-.691-.328.864.864,0,0,0-.527.164q-.223.164-.445.352a3.953,3.953,0,0,1-.492.352,1.264,1.264,0,0,1-.668.164,2.145,2.145,0,0,0-.68.117q-.352.117-.7.27t-.715.3q-.363.152-.668.246a9.9,9.9,0,0,1-2.121.328q-1.066.047-2.145.047-.281,0-.867-.012a7.688,7.688,0,0,1-1.184-.117,3.716,3.716,0,0,1-1.055-.34.721.721,0,0,1-.457-.656.519.519,0,0,1,.023-.164,1.4,1.4,0,0,1-.375.3.949.949,0,0,1-.469.117,1.491,1.491,0,0,1-.914-.516,8.745,8.745,0,0,1-1.031-1.2,11.2,11.2,0,0,1-.844-1.348,2.475,2.475,0,0,1-.352-1,.782.782,0,0,1,.152-.469.782.782,0,0,0,.152-.469,2.294,2.294,0,0,0-.082-.621,2.294,2.294,0,0,1-.082-.621,2.8,2.8,0,0,1,.164-.9,8.337,8.337,0,0,1,.4-.961q.234-.48.492-.937t.469-.855a1.91,1.91,0,0,1,.656-.75,6.158,6.158,0,0,1,.891-.492l.938-.422a2.737,2.737,0,0,0,.82-.562,1.162,1.162,0,0,0,.914.4,3.829,3.829,0,0,0,1.148-.176,3.829,3.829,0,0,1,1.148-.176,4.259,4.259,0,0,1,.9.094,4.259,4.259,0,0,0,.9.094A1.714,1.714,0,0,0,41.1,27.4a3.475,3.475,0,0,0,.621-.457,2.556,2.556,0,0,1,.949-.5,9.53,9.53,0,0,1,1.2-.281q.621-.105,1.242-.223a4.9,4.9,0,0,0,1.113-.34,2.09,2.09,0,0,0,.8-.609,1.681,1.681,0,0,0,.3-1.066,3.431,3.431,0,0,0-.434-1.582,6.494,6.494,0,0,0-2.613-2.66,3.3,3.3,0,0,0-1.57-.445.771.771,0,0,0-.187.023.689.689,0,0,1-.164.023,11.133,11.133,0,0,1-1.266.129,5.763,5.763,0,0,0-1.312.211,2.409,2.409,0,0,0-1.031.586,1.609,1.609,0,0,0-.422,1.207,5.23,5.23,0,0,0,.082.926,5.23,5.23,0,0,1,.082.926,1.944,1.944,0,0,1-.34,1.172,2.518,2.518,0,0,1-.867.75,3.76,3.76,0,0,1-1.16.387,7.415,7.415,0,0,1-1.219.105,3.568,3.568,0,0,1-1.219-.187,1.58,1.58,0,0,1-.844-.867q-.258-.492-.551-1.066a2.529,2.529,0,0,1-.293-1.16,3.128,3.128,0,0,1,.223-1.184,11.248,11.248,0,0,1,.5-1.078q.281-.527.551-1.055a4.245,4.245,0,0,0,.387-1.137,2.464,2.464,0,0,1,.457-.187q.293-.094.633-.187t.656-.176q.316-.082.527-.152a9.991,9.991,0,0,0,1.09-.387q.527-.223,1.078-.41t1.1-.328a5.465,5.465,0,0,1,1.137-.164l.727-.023a12.535,12.535,0,0,1,2.063.176A11.2,11.2,0,0,1,47.1,17.582a7.653,7.653,0,0,1,1.605,1.3,4.888,4.888,0,0,1,.855,1.324,9.014,9.014,0,0,1,.539,1.605,12.635,12.635,0,0,1,.281,1.7q.082.855.082,1.582,0,.984-.059,1.934t-.059,1.934a16.448,16.448,0,0,0,.105,1.863q.105.926.246,1.852t.246,1.852a16.243,16.243,0,0,1,.105,1.84,1.547,1.547,0,0,0,.152.691.294.294,0,0,0,.223.129,1.125,1.125,0,0,0,.832-.316,4.6,4.6,0,0,0,.574-.7,5.67,5.67,0,0,1,.563-.715,1.01,1.01,0,0,1,.773-.328,4.142,4.142,0,0,1,.434.023,1.377,1.377,0,0,1,.41.105.761.761,0,0,1,.3.234A.656.656,0,0,1,55.43,35.9Zm-7.711-5.836q0-.141-.012-.492t-.059-.715a2.892,2.892,0,0,0-.152-.645q-.105-.281-.316-.281a.276.276,0,0,0-.117.035.276.276,0,0,1-.117.035q-.891.492-1.523.809a8.853,8.853,0,0,1-1.254.516,6.415,6.415,0,0,1-1.324.27q-.7.07-1.758.07a6.515,6.515,0,0,0-.773.117q-.633.117-1.383.27t-1.406.3q-.656.152-.82.2a1.428,1.428,0,0,0-.434.234.881.881,0,0,0-.2.258q-.07.141-.141.293a1,1,0,0,1-.258.316,2.222,2.222,0,0,1-.5.3,1.637,1.637,0,0,0-.5.352,3.859,3.859,0,0,0-.656.926,2.332,2.332,0,0,0-.3,1.09,1.981,1.981,0,0,0,.328,1.125,2.982,2.982,0,0,0,.867.844,6.339,6.339,0,0,0,1.219.609,8.816,8.816,0,0,0,1.371.4q.691.141,1.336.211a10.468,10.468,0,0,0,1.113.07,12.916,12.916,0,0,0,1.336-.082,13.308,13.308,0,0,0,1.547-.258,7.731,7.731,0,0,0,1.453-.48,2.991,2.991,0,0,0,1.078-.773,1.482,1.482,0,0,0,.234-.34q.07-.152.152-.3t.188-.316a1.556,1.556,0,0,1,.34-.352A3.37,3.37,0,0,0,47.1,33.7a4.591,4.591,0,0,0,.434-1.125,6.192,6.192,0,0,0,.164-1.219Q47.719,30.719,47.719,30.063Zm34.172-1.477a9.155,9.155,0,0,1-.211,1.969q-.211.961-.352,1.945-.047.328-.059.6a3.587,3.587,0,0,1-.059.516,2.025,2.025,0,0,1-.164.492,2.114,2.114,0,0,1-.352.5,1.858,1.858,0,0,0-.422.691q-.117.363-.234.762a1.83,1.83,0,0,1-.316.6,2.171,2.171,0,0,1-.375.34q-.2.141-.422.27a1.973,1.973,0,0,0-.457.387.754.754,0,0,0-.176.328q-.035.164-.059.316a.827.827,0,0,1-.105.293.612.612,0,0,1-.316.234,1.435,1.435,0,0,0-.539.363q-.164.2-.422.457a3.459,3.459,0,0,1-.668.5,6.415,6.415,0,0,1-.867.434,6.75,6.75,0,0,1-.926.3,3.443,3.443,0,0,1-.82.117,4.147,4.147,0,0,1-.879-.094,4.147,4.147,0,0,0-.879-.094.73.73,0,0,0-.387.082,1.3,1.3,0,0,0-.223.176,2.136,2.136,0,0,1-.2.176.51.51,0,0,1-.316.082,3.455,3.455,0,0,1-1.172-.316q-.773-.316-1.629-.7t-1.652-.7a3.652,3.652,0,0,0-1.219-.316.735.735,0,0,0-.6.27,2.153,2.153,0,0,0-.363.68,4.374,4.374,0,0,0-.2.891q-.059.48-.07.9t0,.7l.012.281a.406.406,0,0,1-.082.3.331.331,0,0,1-.223.07,1.51,1.51,0,0,1-.187-.012q-.094-.012-.211-.035a2,2,0,0,0,.105.609q.105.328.258.691t.293.715a4.513,4.513,0,0,1,.211.656A4.5,4.5,0,0,0,64.3,47.1a.932.932,0,0,0,.457.445,1.711,1.711,0,0,0,.7.105,8.33,8.33,0,0,1,1.078.059q.3.047.656.129a2.073,2.073,0,0,1,.633.258,1.661,1.661,0,0,1,.469.434,1.047,1.047,0,0,1,.188.633,1.263,1.263,0,0,1-.457,1.1,1.94,1.94,0,0,1-1.16.328,13.017,13.017,0,0,1-1.91-.141,13.177,13.177,0,0,0-1.934-.141,17.945,17.945,0,0,0-2.051.117,17.741,17.741,0,0,1-2.027.117,3.8,3.8,0,0,1-.715-.094,5.78,5.78,0,0,1-.914-.27,3.484,3.484,0,0,1-.8-.422.689.689,0,0,1-.34-.551.547.547,0,0,1,.246-.41,2.506,2.506,0,0,1,.563-.34,3.934,3.934,0,0,1,.645-.223,2.272,2.272,0,0,1,.516-.082,2.332,2.332,0,0,0,.785-.129q.363-.129.715-.27t.7-.27a2.161,2.161,0,0,1,.75-.129,10.792,10.792,0,0,0,.27-1.781q.059-.891.059-1.781,0-.633-.012-1.266t-.012-1.266a17.217,17.217,0,0,1,.176-2.461,17.382,17.382,0,0,0,.176-2.484q0-.773-.059-1.547t-.105-1.547a2.1,2.1,0,0,1-.164-.621q-.094-.527-.176-1.16t-.129-1.207q-.047-.574-.047-.762a1.192,1.192,0,0,1,.082-.457,2.455,2.455,0,0,1,.176-.352q.094-.152.176-.27a.381.381,0,0,0,.082-.211.742.742,0,0,0-.07-.164q-.07-.141-.152-.352a4.734,4.734,0,0,1-.152-.469,1.952,1.952,0,0,1-.07-.516,6.554,6.554,0,0,1,.176-1.5,6.554,6.554,0,0,0,.176-1.5,2.445,2.445,0,0,0-.727-1.758q-.352-.352-.562-.539a1.417,1.417,0,0,0-.422-.27A2.069,2.069,0,0,0,59.3,21q-.281-.035-.773-.105a4.246,4.246,0,0,1-.715-.152,7.733,7.733,0,0,1-.9-.316,3.609,3.609,0,0,1-.785-.445.718.718,0,0,1-.34-.562.86.86,0,0,1,.375-.691,3.042,3.042,0,0,1,.879-.469A5.909,5.909,0,0,1,58.055,18a5.515,5.515,0,0,1,.82-.082,3.727,3.727,0,0,1,.656.059,1.034,1.034,0,0,1,.563.293,1.253,1.253,0,0,1,.633-.34,3.4,3.4,0,0,1,.727-.082,3.189,3.189,0,0,1,1.547.3,3.225,3.225,0,0,1,.855.668,6.227,6.227,0,0,1,.516.668.588.588,0,0,0,.5.3.97.97,0,0,0,.363-.07q.176-.07.363-.164a15.3,15.3,0,0,1,1.477-.574q.984-.34,2.086-.656t2.109-.527a8.145,8.145,0,0,1,1.523-.211,3.1,3.1,0,0,1,.738.129q.48.129,1.066.328t1.219.469q.633.27,1.172.551a9.645,9.645,0,0,1,.938.551,2,2,0,0,1,.539.48,4.212,4.212,0,0,0,.551.727,1.9,1.9,0,0,0,.785.469.908.908,0,0,1,.176.4,2.708,2.708,0,0,1,.035.445v.445a1.352,1.352,0,0,0,.164.727,2.234,2.234,0,0,0,.352.434l.352.328a.562.562,0,0,1,.164.434.486.486,0,0,1-.094.293.452.452,0,0,0-.094.27,1.728,1.728,0,0,0,.164.715q.164.363.352.8t.352.926A3.392,3.392,0,0,1,81.891,28.586ZM71.156,18.6a.414.414,0,0,0-.352-.352.28.28,0,0,0-.293.246,1.9,1.9,0,0,0-.059.434q0-.047.023-.047a.1.1,0,0,1,.07.023l-.094.047a2.148,2.148,0,0,0,.434-.059Q71.156,18.836,71.156,18.6Zm7.969,10.711a5.049,5.049,0,0,0-.187-1.371,9.047,9.047,0,0,0-.469-1.289,11.826,11.826,0,0,0-.633-1.207q-.352-.586-.7-1.148a.738.738,0,0,1-.117-.316,2.657,2.657,0,0,1-.023-.352,1.789,1.789,0,0,0-.035-.352.772.772,0,0,0-.5-.562q-.164-.035-.316-.059a1.043,1.043,0,0,1-.328-.117.936.936,0,0,1-.34-.422,1.562,1.562,0,0,0-.5-.469,8.571,8.571,0,0,0-.844-.492,7.155,7.155,0,0,0-.891-.387,2.2,2.2,0,0,0-.668-.152,2.3,2.3,0,0,0-.926.2,2.3,2.3,0,0,1-.926.2,1.483,1.483,0,0,1-.6-.117q-.27-.117-.516-.246t-.5-.246a1.288,1.288,0,0,0-.539-.117h-.117a2.017,2.017,0,0,1,.047.375.565.565,0,0,1-.094.34.85.85,0,0,1-.246.223,3.239,3.239,0,0,1-.328.176,2.4,2.4,0,0,0-.316.176.881.881,0,0,0-.223.516q-.012.258-.246.258a.585.585,0,0,1-.258-.047.274.274,0,0,1-.094.234.917.917,0,0,1-.211.117q-.117.047-.234.105a.255.255,0,0,0-.141.2.8.8,0,0,0-.562.363,3.245,3.245,0,0,0-.445.855,9.225,9.225,0,0,0-.328,1.148q-.141.633-.234,1.23t-.141,1.1q-.047.5-.047.762a13.313,13.313,0,0,0,.105,1.676,13.313,13.313,0,0,1,.105,1.676q0,.633-.035,1.266t-.082,1.289q.586.633,1.125,1.266a9.76,9.76,0,0,0,1.137,1.137,5.963,5.963,0,0,0,1.324.844,4.19,4.19,0,0,0,1.688.363,3.082,3.082,0,0,1,.75.094l.75.188q.375.094.738.176a3.341,3.341,0,0,0,.738.082,2.1,2.1,0,0,0,.75-.152,4.871,4.871,0,0,0,.785-.387,8.183,8.183,0,0,0,.738-.5,4.451,4.451,0,0,0,.586-.527A1.073,1.073,0,0,1,76,36.6a1.187,1.187,0,0,0,.457-.281.705.705,0,0,0,.188-.3q.047-.164.082-.328a1.505,1.505,0,0,1,.105-.316.628.628,0,0,1,.281-.27,3.393,3.393,0,0,0,.563-.34.508.508,0,0,0,.117-.387V33.93a.437.437,0,0,1,.117-.34q.117-.105.258-.211a.917.917,0,0,0,.375-.879,3.777,3.777,0,0,0-.047-.6,3.777,3.777,0,0,1-.047-.6,1.472,1.472,0,0,1,.105-.562,4.76,4.76,0,0,1,.234-.492q.129-.234.234-.457A1.108,1.108,0,0,0,79.125,29.313Z" transform="translate(-90 125)" fill="#a54835"/><g transform="matrix(1, 0, 0, 1, -88.83, 90.92)" filter="url(#a)"><path d="M15.5,0A15.5,15.5,0,1,1,0,15.5,15.5,15.5,0,0,1,15.5,0Z" transform="translate(121.83 57.08)" fill="#a54835"/></g></g></svg>