<svg xmlns="http://www.w3.org/2000/svg" viewBox="0 0 360.062 68.226"><g transform="translate(423.197 1579.933)" fill="#aeb1be"><path d="M -96.25519561767578 -1514.206665039063 L -390.0765991210938 -1514.206665039063 C -391.833984375 -1514.206665039063 -393.5873413085938 -1514.249389648438 -395.3097229003906 -1514.334106445313 C -396.3027954101563 -1516.415161132813 -398.736083984375 -1518.759155273438 -404.1766052246094 -1520.651245117188 C -408.7138061523438 -1522.229125976563 -414.5078735351563 -1523.1826171875 -420.6970825195313 -1523.385375976563 L -420.6970825195313 -1568.254272460938 C -414.5078430175781 -1568.45703125 -408.7135620117188 -1569.410522460938 -404.1766052246094 -1570.98828125 C -398.7364807128906 -1572.880249023438 -396.3029174804688 -1575.224487304688 -395.3096923828125 -1577.305419921875 C -393.5858154296875 -1577.39013671875 -391.8322448730469 -1577.432983398438 -390.0765991210938 -1577.432983398438 L -96.25519561767578 -1577.432983398438 C -94.49876403808594 -1577.432983398438 -92.74605560302734 -1577.390258789063 -91.02391052246094 -1577.305541992188 C -90.03073883056641 -1575.224487304688 -87.59722137451172 -1572.880493164063 -82.15608978271484 -1570.98828125 C -77.61844635009766 -1569.410522460938 -71.82392883300781 -1568.45703125 -65.63469696044922 -1568.254272460938 L -65.63469696044922 -1523.385375976563 C -71.82418060302734 -1523.1826171875 -77.61861419677734 -1522.229125976563 -82.15599060058594 -1520.651245117188 C -87.59677124023438 -1518.75927734375 -90.03060150146484 -1516.414916992188 -91.02392578125 -1514.333984375 C -92.74578857421875 -1514.249389648438 -94.49856567382813 -1514.206665039063 -96.25519561767578 -1514.206665039063 Z" stroke="none"/><path d="M -96.25519561767578 -1516.706665039063 C -94.99372863769531 -1516.706665039063 -93.73458099365234 -1516.729248046875 -92.48818969726563 -1516.77392578125 C -90.95038604736328 -1518.97900390625 -88.09478759765625 -1521.23291015625 -82.97709655761719 -1523.012573242188 C -78.81085968017578 -1524.461303710938 -73.66326904296875 -1525.408813476563 -68.13469696044922 -1525.766235351563 L -68.13469696044922 -1565.873413085938 C -73.6630859375 -1566.230834960938 -78.81069946289063 -1567.17822265625 -82.97724151611328 -1568.627075195313 C -88.09481811523438 -1570.40673828125 -90.95040130615234 -1572.660522460938 -92.48819732666016 -1574.865600585938 C -93.73472595214844 -1574.910400390625 -94.99383544921875 -1574.932983398438 -96.25519561767578 -1574.932983398438 L -390.0765991210938 -1574.932983398438 C -391.3377990722656 -1574.932983398438 -392.5975952148438 -1574.910400390625 -393.8453063964844 -1574.865478515625 C -395.3829345703125 -1572.660400390625 -398.2382507324219 -1570.406616210938 -403.3554077148438 -1568.627075195313 C -407.5213317871094 -1567.17822265625 -412.6687316894531 -1566.230834960938 -418.1970825195313 -1565.873413085938 L -418.1970825195313 -1525.766235351563 C -412.6692199707031 -1525.40869140625 -407.5211791992188 -1524.461181640625 -403.3554382324219 -1523.012451171875 C -398.2383422851563 -1521.23291015625 -395.3829956054688 -1518.97900390625 -393.8453674316406 -1516.774047851563 C -392.5985107421875 -1516.729248046875 -391.3386535644531 -1516.706665039063 -390.0765991210938 -1516.706665039063 L -96.25519561767578 -1516.706665039063 M -96.25519561767578 -1511.706665039063 L -390.0765991210938 -1511.706665039063 C -392.4820556640625 -1511.706665039063 -394.8818359375 -1511.785034179688 -397.2093505859375 -1511.939697265625 C -397.3780517578125 -1514.346801757813 -400.1432800292969 -1516.601684570313 -404.997802734375 -1518.289916992188 C -409.8585815429688 -1519.980346679688 -416.2845458984375 -1520.916625976563 -423.0919799804688 -1520.926147460938 C -423.1623840332031 -1521.19482421875 -423.1970825195313 -1521.464965820313 -423.1970825195313 -1521.72998046875 L -423.1970825195313 -1569.90869140625 C -423.1970825195313 -1570.17626953125 -423.1615905761719 -1570.447143554688 -423.0917358398438 -1570.713500976563 C -416.2845458984375 -1570.723022460938 -409.8594055175781 -1571.658935546875 -404.9977416992188 -1573.349609375 C -400.1439819335938 -1575.03759765625 -397.3779907226563 -1577.292846679688 -397.2093505859375 -1579.699829101563 C -394.8743896484375 -1579.854858398438 -392.4751892089844 -1579.932983398438 -390.0765991210938 -1579.932983398438 L -96.25519561767578 -1579.932983398438 C -93.85094451904297 -1579.932983398438 -91.45184326171875 -1579.854614257813 -89.12434387207031 -1579.699951171875 C -88.95564270019531 -1577.292846679688 -86.18994140625 -1575.037963867188 -81.33494567871094 -1573.349609375 C -76.47374725341797 -1571.659301757813 -70.04749298095703 -1570.723022460938 -63.23999404907227 -1570.713500976563 C -63.1694450378418 -1570.444458007813 -63.13469314575195 -1570.174072265625 -63.13469314575195 -1569.90869140625 L -63.13469314575195 -1521.72998046875 C -63.13469314575195 -1521.46240234375 -63.1700439453125 -1521.192016601563 -63.23979187011719 -1520.926147460938 C -70.04719543457031 -1520.916625976563 -76.47264099121094 -1519.980712890625 -81.33484649658203 -1518.289916992188 C -86.18934631347656 -1516.601806640625 -88.95569610595703 -1514.346557617188 -89.12434387207031 -1511.939575195313 C -91.45619201660156 -1511.78466796875 -93.85474395751953 -1511.706665039063 -96.25519561767578 -1511.706665039063 Z" stroke="none" fill="#dfdfdf"/></g></svg>