<svg width="27" height="27" viewBox="0 0 27 27" fill="none" xmlns="http://www.w3.org/2000/svg">
<path d="M22 0H5C2.23858 0 0 2.23858 0 5V22C0 24.7614 2.23858 27 5 27H22C24.7614 27 27 24.7614 27 22V5C27 2.23858 24.7614 0 22 0Z" fill="black"/>
<path d="M22 0.5H5C2.51472 0.5 0.5 2.51472 0.5 5V22C0.5 24.4853 2.51472 26.5 5 26.5H22C24.4853 26.5 26.5 24.4853 26.5 22V5C26.5 2.51472 24.4853 0.5 22 0.5Z" stroke="#707070"/>
<path d="M15.677 6.751V19.569L4.367 13.16L15.677 6.751Z" fill="white"/>
<path d="M5.21599 13.161L15.257 18.85V7.471L5.21599 13.161ZM3.51599 13.161L16.096 6.033V20.289L3.51599 13.161Z" fill="#707070"/>
<path d="M10 9H3V17H10V9Z" fill="#707070"/>
<path d="M9.5 9.5H3.5V16.5H9.5V9.5Z" stroke="#707070"/>
<path d="M20.708 19.031C20.708 19.031 23.308 16.096 23.308 13.244C23.308 10.392 20.708 7.28999 20.708 7.28999" stroke="#707070"/>
<path d="M19.031 17.94C19.031 17.94 21.631 15.676 21.631 13.476C21.631 11.276 19.031 8.883 19.031 8.883" stroke="#707070"/>
<path d="M17.353 16.934C17.353 16.934 19.953 15.257 19.953 13.625C19.953 11.993 17.353 10.225 17.353 10.225" stroke="#707070"/>
<path d="M5.10303 5.103L22.8931 22.8931" stroke="#C44040"/>
<path d="M22.894 5.103L5.10388 22.8931" stroke="#C44040"/>
</svg>
