<svg xmlns="http://www.w3.org/2000/svg" width="27" height="27" viewBox="0 0 27 27"><g transform="translate(-229.547 -19.665)"><g transform="translate(229.547 19.665)" fill="#c6823e" stroke="#dfdfdf" stroke-width="1"><rect width="27" height="27" rx="5" stroke="none"/><rect x="0.5" y="0.5" width="26" height="26" rx="4.5" fill="none"/></g><g transform="translate(39.547 -131.335)"><g transform="translate(193.516 171.289) rotate(-90)"><path d="M12.818,11.31H0L6.409,0Z" transform="translate(0.72 0.851)" fill="#fff"/><path d="M7.128,1.7,1.439,11.741H12.818L7.128,1.7m0-1.7,7.128,12.58H0Z" fill="#dfdfdf"/></g><g transform="translate(193 160)" fill="#f1cf4a" stroke="#dfdfdf" stroke-width="1"><rect width="7" height="8" stroke="none"/><rect x="0.5" y="0.5" width="6" height="7" fill="none"/></g><path d="M0,11.741S2.6,8.806,2.6,5.954,0,0,0,0" transform="translate(210.708 158.29)" fill="none" stroke="#f1cf4a" stroke-width="1"/><path d="M0,9.057S2.6,6.793,2.6,4.593,0,0,0,0" transform="translate(209.031 159.883)" fill="none" stroke="#f1cf4a" stroke-width="1"/><path d="M0,6.709S2.6,5.032,2.6,3.4,0,0,0,0" transform="translate(207.353 161.225)" fill="none" stroke="#f1cf4a" stroke-width="1"/><rect width="25" height="25" transform="translate(191 152)" fill="none"/><line x2="25.159" transform="translate(195.103 156.103) rotate(45)" fill="none" stroke="#a54835" stroke-width="1"/><line x2="25.159" transform="translate(212.894 156.103) rotate(135)" fill="none" stroke="#a54835" stroke-width="1"/></g></g></svg>