<svg xmlns="http://www.w3.org/2000/svg" xmlns:xlink="http://www.w3.org/1999/xlink" width="281.5" height="203.5" viewBox="0 0 281.5 203.5" preserveAspectRatio="none"><defs><filter id="a" x="0" y="0" width="281.5" height="203.5" filterUnits="userSpaceOnUse"><feOffset dx="-3" dy="3" input="SourceAlpha"/><feGaussianBlur stdDeviation="0.5" result="b"/><feFlood flood-color="#5b5e68"/><feComposite operator="in" in2="b"/><feComposite in="SourceGraphic"/></filter></defs><g transform="matrix(1, 0, 0, 1, 0, 0)" filter="url(#a)"><g transform="translate(415.5 1700)" fill="#aeb1be"><path d="M -164.9997253417969 -1503.500244140625 L -379.9997863769531 -1503.500244140625 C -382.97607421875 -1503.500244140625 -385.8921813964844 -1503.953247070313 -388.6898193359375 -1504.848388671875 C -389.3434753417969 -1511.405151367188 -391.6656494140625 -1517.481079101563 -395.3105163574219 -1522.106689453125 C -398.9006042480469 -1526.6630859375 -403.4989318847656 -1529.481689453125 -408.4445190429688 -1530.2060546875 C -408.4815979003906 -1530.80322265625 -408.5002746582031 -1531.402465820313 -408.5002746582031 -1531.999877929688 L -408.5002746582031 -1668.999633789063 C -408.5002746582031 -1669.597534179688 -408.4815979003906 -1670.197021484375 -408.4445190429688 -1670.794311523438 C -403.4989929199219 -1671.518676757813 -398.9006652832031 -1674.337280273438 -395.3104858398438 -1678.8935546875 C -391.6656188964844 -1683.519287109375 -389.3434753417969 -1689.595092773438 -388.6898193359375 -1696.151977539063 C -385.8921203613281 -1697.047119140625 -382.9760131835938 -1697.500122070313 -379.9997863769531 -1697.500122070313 L -164.9997253417969 -1697.500122070313 C -162.0234375 -1697.500122070313 -159.1072845458984 -1697.047119140625 -156.3096771240234 -1696.15185546875 C -155.656005859375 -1689.594970703125 -153.3340301513672 -1683.519165039063 -149.6894836425781 -1678.8935546875 C -146.0996704101563 -1674.337646484375 -141.5008544921875 -1671.51904296875 -136.5558624267578 -1670.794311523438 C -136.5187683105469 -1670.197021484375 -136.5001068115234 -1669.597534179688 -136.5001068115234 -1668.999633789063 L -136.5001068115234 -1531.999877929688 C -136.5001068115234 -1531.40234375 -136.5187683105469 -1530.80322265625 -136.5558319091797 -1530.2060546875 C -141.5009765625 -1529.481323242188 -146.0998077392578 -1526.662719726563 -149.689453125 -1522.106689453125 C -153.3340301513672 -1517.481079101563 -155.656005859375 -1511.405151367188 -156.3096771240234 -1504.848388671875 C -159.1073303222656 -1503.953247070313 -162.0234375 -1503.500244140625 -164.9997253417969 -1503.500244140625 Z" stroke="none"/><path d="M -164.9997253417969 -1506.000244140625 C -162.8184356689453 -1506.000244140625 -160.6730499267578 -1506.2666015625 -158.5914001464844 -1506.794189453125 C -157.6802978515625 -1513.172119140625 -155.2708435058594 -1519.062377929688 -151.6531829833984 -1523.653930664063 C -148.1596069335938 -1528.088012695313 -143.7764739990234 -1531.04638671875 -139.0001068115234 -1532.26416015625 L -139.0001068115234 -1668.736206054688 C -143.7763671875 -1669.953979492188 -148.159423828125 -1672.912353515625 -151.6531829833984 -1677.346313476563 C -155.2708435058594 -1681.937744140625 -157.6802825927734 -1687.828125 -158.5914154052734 -1694.2060546875 C -160.6730346679688 -1694.733764648438 -162.8184661865234 -1695.000122070313 -164.9997253417969 -1695.000122070313 L -379.9997863769531 -1695.000122070313 C -382.1810302734375 -1695.000122070313 -384.326416015625 -1694.733764648438 -386.4080810546875 -1694.206176757813 C -387.3192138671875 -1687.828247070313 -389.7288513183594 -1681.937866210938 -393.3468322753906 -1677.34619140625 C -396.8406372070313 -1672.912231445313 -401.2239074707031 -1669.953979492188 -406.0002746582031 -1668.736206054688 L -406.0002746582031 -1532.26416015625 C -401.2238464355469 -1531.04638671875 -396.840576171875 -1528.088012695313 -393.3468627929688 -1523.654052734375 C -389.7288818359375 -1519.062377929688 -387.3192138671875 -1513.172119140625 -386.4080810546875 -1506.794189453125 C -384.3264465332031 -1506.2666015625 -382.1810913085938 -1506.000244140625 -379.9997863769531 -1506.000244140625 L -164.9997253417969 -1506.000244140625 M -164.9997253417969 -1501.000244140625 L -379.9997863769531 -1501.000244140625 C -383.8088684082031 -1501.000244140625 -387.5285949707031 -1501.68310546875 -391.0557250976563 -1503.02978515625 C -391.4266357421875 -1509.715698242188 -393.6348266601563 -1515.940795898438 -397.274169921875 -1520.559448242188 C -400.9281921386719 -1525.196899414063 -405.7069396972656 -1527.800170898438 -410.7301330566406 -1527.889770507813 C -410.90966796875 -1529.245483398438 -411.0002746582031 -1530.628051757813 -411.0002746582031 -1531.999877929688 L -411.0002746582031 -1668.999633789063 C -411.0002746582031 -1670.374755859375 -410.9093627929688 -1671.7578125 -410.7301025390625 -1673.110595703125 C -405.7068786621094 -1673.2001953125 -400.9284973144531 -1675.803100585938 -397.2741394042969 -1680.440795898438 C -393.6350708007813 -1685.059204101563 -391.4266357421875 -1691.28466796875 -391.0557250976563 -1697.970581054688 C -387.5279235839844 -1699.317504882813 -383.8083801269531 -1700.000122070313 -379.9997863769531 -1700.000122070313 L -164.9997253417969 -1700.000122070313 C -161.1907196044922 -1700.000122070313 -157.4709167480469 -1699.317260742188 -153.9437561035156 -1697.970458984375 C -153.5727996826172 -1691.284545898438 -151.3647918701172 -1685.059326171875 -147.7257995605469 -1680.440795898438 C -144.0718688964844 -1675.803466796875 -139.2933044433594 -1673.2001953125 -134.270263671875 -1673.110595703125 C -134.0906829833984 -1671.755249023438 -134.0001068115234 -1670.372436523438 -134.0001068115234 -1668.999633789063 L -134.0001068115234 -1531.999877929688 C -134.0001068115234 -1530.626098632813 -134.0909576416016 -1529.243286132813 -134.2701873779297 -1527.889770507813 C -139.2934112548828 -1527.800170898438 -144.0717163085938 -1525.197265625 -147.7257537841797 -1520.5595703125 C -151.3645324707031 -1515.941162109375 -153.5727996826172 -1509.715698242188 -153.9437561035156 -1503.02978515625 C -157.4718017578125 -1501.682739257813 -161.1912994384766 -1501.000244140625 -164.9997253417969 -1501.000244140625 Z" stroke="none" fill="#dfdfdf"/></g></g></svg>