<svg xmlns="http://www.w3.org/2000/svg" xmlns:xlink="http://www.w3.org/1999/xlink" viewBox="0 0 342.724 77" preserveAspectRatio="none"><defs><filter id="a" x="0" y="8.639" width="74.724" height="68.362" filterUnits="userSpaceOnUse"><feOffset dx="-3" dy="3" input="SourceAlpha"/><feGaussianBlur stdDeviation="1" result="b"/><feFlood flood-color="#a54835"/><feComposite operator="in" in2="b"/><feComposite in="SourceGraphic"/></filter><filter id="c" x="268" y="8.639" width="74.724" height="68.361" filterUnits="userSpaceOnUse"><feOffset dx="-3" dy="3" input="SourceAlpha"/><feGaussianBlur stdDeviation="1" result="d"/><feFlood flood-color="#a54835"/><feComposite operator="in" in2="d"/><feComposite in="SourceGraphic"/></filter><filter id="e" x="38" y="0" width="266" height="67.524" filterUnits="userSpaceOnUse"><feOffset dx="-3" dy="3" input="SourceAlpha"/><feGaussianBlur stdDeviation="1" result="f"/><feFlood flood-color="#a54835"/><feComposite operator="in" in2="f"/><feComposite in="SourceGraphic"/></filter></defs><g transform="translate(-6 -376.838)"><g transform="translate(12 371.477)"><g transform="matrix(1, 0, 0, 1, -6, 5.36)" filter="url(#a)"><g transform="matrix(1, -0.09, 0.09, 1, 6, 14.22)" fill="#f1cf4a"><path d="M 62.49991607666016 55.5006103515625 L 2.999958276748657 55.50049209594727 L 23.67527389526367 29.43223571777344 L 24.4145450592041 28.50012588500977 L 23.67526435852051 27.56801605224609 L 3.000040292739868 1.500010848045349 L 62.49991607666016 1.500122308731079 L 62.49991607666016 55.5006103515625 Z" stroke="none"/><path d="M 6.104236602783203 3.000007629394531 L 24.85049819946289 26.63590431213379 L 26.32905578613281 28.5001277923584 L 24.85049819946289 30.36433792114258 L 6.104133605957031 54.00049591064453 L 60.99990844726563 54.0005989074707 L 60.99990844726563 3.000110626220703 L 6.104236602783203 3.000007629394531 M 0 -7.62939453125e-06 L 63.99990844726563 0.00011444091796875 L 63.99990844726563 57.00060653686523 L 0 57.00048446655273 L 3.0517578125e-05 56.86901473999023 L 22.50003051757813 28.5001277923584 L 0 0.1313514709472656 L 0 -7.62939453125e-06 Z" stroke="none" fill="#dfdfdf"/></g></g><g transform="matrix(1, 0, 0, 1, -6, 5.36)" filter="url(#c)"><g transform="matrix(-1, -0.09, 0.09, -1, 337.76, 71)" fill="#f1cf4a"><path d="M 2.999953031539917 55.50031661987305 L 23.67524909973145 29.43214797973633 L 24.41452980041504 28.50003814697266 L 23.67524909973145 27.56792831420898 L 3.000046491622925 1.500017404556274 L 62.4998779296875 1.499998807907104 L 62.49987030029297 55.50029754638672 L 2.999953031539917 55.50031661987305 Z" stroke="none"/><path d="M 60.99987030029297 3.000003814697266 L 6.104255676269531 3.000011444091797 L 24.85049438476563 26.63581466674805 L 26.32905197143555 28.50003623962402 L 24.85049438476563 30.3642463684082 L 6.104152679443359 54.00031280517578 L 60.99986267089844 54.00030517578125 L 60.99987030029297 3.000003814697266 M 63.99987411499023 3.814697265625e-06 L 63.99986267089844 57.00030136108398 L -3.814697265625e-06 57.00031280517578 L 2.6702880859375e-05 56.86884689331055 L 22.50002670288086 28.50003623962402 L 3.814697265625e-06 0.1313591003417969 L 3.814697265625e-06 1.52587890625e-05 L 63.99987411499023 3.814697265625e-06 Z" stroke="none" fill="#dfdfdf"/></g></g><g transform="matrix(1, 0, 0, 1, -6, 5.36)" filter="url(#e)"><g transform="translate(44 0)" fill="#f1cf4a"><path d="M 1.505590081214905 59.22735214233398 C 1.501874923706055 59.1517333984375 1.500012397766113 59.07577133178711 1.500012397766113 58.9995002746582 L 1.500012397766113 14.00040149688721 C 1.500012397766113 13.34036731719971 1.640079140663147 12.70463466644287 1.916345834732056 12.11080074310303 L 2.39131236076355 11.08986759185791 L 1.726327180862427 10.50855159759521 C 2.082268476486206 10.2604284286499 2.850362300872803 9.844494819641113 4.454079151153564 9.334867477416992 C 6.405879020690918 8.714667320251465 9.12984561920166 8.102334022521973 12.55027866363525 7.514901161193848 C 19.40454483032227 6.337734222412109 28.84011268615723 5.283567905426025 40.59484481811523 4.381667613983154 C 64.81431579589844 2.523401021957397 96.56587982177734 1.500001072883606 130.0005187988281 1.500001072883606 C 163.4347839355469 1.500001072883606 195.1860504150391 2.523401021957397 219.4054107666016 4.381667613983154 C 231.1600799560547 5.283567905426025 240.5955810546875 6.337734222412109 247.4498443603516 7.514901161193848 C 250.8702850341797 8.102334022521973 253.5942077636719 8.714667320251465 255.5460052490234 9.334867477416992 C 257.1497192382813 9.844494819641113 257.9178161621094 10.2604284286499 258.2737731933594 10.50855159759521 L 257.6087646484375 11.08986759185791 L 258.083740234375 12.11080074310303 C 258.3600158691406 12.70463466644287 258.5000915527344 13.34036731719971 258.5000915527344 14.00040149688721 L 258.5000915527344 58.9995002746582 C 258.5000915527344 59.07564163208008 258.4982299804688 59.15145874023438 258.4945373535156 59.22689437866211 C 256.6289672851563 58.4012336730957 253.2478332519531 57.4112663269043 246.7188110351563 56.35006713867188 C 239.546875 55.18436813354492 229.8653411865234 54.14566802978516 217.9431762695313 53.26280212402344 C 193.8795776367188 51.48130035400391 162.6476135253906 50.50020217895508 130.0005187988281 50.50020217895508 C 97.35340881347656 50.50020217895508 66.12144470214844 51.48130035400391 42.05788040161133 53.26280212402344 C 30.13324546813965 54.14570236206055 20.45067977905273 55.18443298339844 13.27914619445801 56.35016632080078 C 6.751259326934814 57.41126251220703 3.370686769485474 58.40139389038086 1.505590081214905 59.22735214233398 Z" stroke="none"/><path d="M 3.000010013580322 57.07502746582031 C 5.159482002258301 56.38156509399414 8.314208030700684 55.63753509521484 13.03847408294678 54.86960983276367 C 20.25290298461914 53.69689559936523 29.97918891906738 52.65299987792969 41.94711685180664 51.76689529418945 C 66.04597473144531 49.9827880859375 97.3172607421875 49.00021362304688 130.0005035400391 49.00021362304688 C 162.6837615966797 49.00021362304688 193.9550476074219 49.9827880859375 218.0539398193359 51.76689529418945 C 230.0194091796875 52.6529655456543 239.7446136474609 53.69682312011719 246.95947265625 54.86946487426758 C 251.6848297119141 55.63751983642578 254.84033203125 56.38158416748047 257.0000915527344 57.07485961914063 L 257.0000915527344 14.00039386749268 C 257.0000915527344 13.56053638458252 256.9071044921875 13.13768005371094 256.7237548828125 12.74353694915771 L 255.9371185302734 11.05272960662842 C 255.4634246826172 10.87862205505371 254.8531951904297 10.67934036254883 254.0715484619141 10.461501121521 C 251.9645385742188 9.874286651611328 249.1314086914063 9.294179916381836 245.6508636474609 8.737215042114258 C 238.6161956787109 7.611536979675293 229.1654052734375 6.605465412139893 217.5610046386719 5.746965408325195 C 193.6172180175781 3.975572347640991 162.5209808349609 3.000000953674316 130.0005035400391 3.000000953674316 C 97.47969055175781 3.000000953674316 66.38315582275391 3.975572347640991 42.43922424316406 5.746965408325195 C 30.83479499816895 6.605465412139893 21.38393783569336 7.611536979675293 14.34922409057617 8.737215042114258 C 10.86868858337402 9.294179916381836 8.035581588745117 9.874286651611328 5.928545951843262 10.461501121521 C 5.146892070770264 10.67934036254883 4.536635875701904 10.87863636016846 4.062932968139648 11.05274391174316 L 3.276331424713135 12.74353694915771 C 3.092974424362183 13.13768005371094 3.000010013580322 13.56053638458252 3.000010013580322 14.00039386749268 L 3.000010013580322 57.07502746582031 M 0.5544029474258423 61.52400207519531 L 0.5535100698471069 61.52310943603516 C 0.1862957775592804 60.7283935546875 1.006208185572177e-05 59.87971496582031 1.006208185572177e-05 58.9995002746582 L 1.006208185572177e-05 14.00039386749268 C 1.006208185572177e-05 13.10000133514404 0.1993672102689743 12.24532222747803 0.5562957525253296 11.47810840606689 C 0.1878672093153 11.15600109100342 1.006208185572177e-05 10.83014392852783 1.006208185572177e-05 10.50028705596924 C 1.006208185572177e-05 4.7007155418396 58.20301055908203 1.037597712638672e-06 130.0005035400391 1.037597712638672e-06 C 201.797119140625 1.037597712638672e-06 260.0000915527344 4.7007155418396 260.0000915527344 10.50028705596924 C 260.0000915527344 10.83014392852783 259.812255859375 11.15600109100342 259.4437866210938 11.47810840606689 C 259.8007202148438 12.24532222747803 260.0000915527344 13.10000133514404 260.0000915527344 14.00039386749268 L 260.0000915527344 58.9995002746582 C 260.0000915527344 59.88060760498047 259.8138427734375 60.72928619384766 259.4457092285156 61.522216796875 C 256.4801940917969 58.92839431762695 241.7022247314453 56.52628707885742 217.8323974609375 54.75871658325195 C 193.8105163574219 52.98028564453125 162.6174011230469 52.00021362304688 130.0005035400391 52.00021362304688 C 97.38272094726563 52.00021362304688 66.19051361083984 52.98028564453125 42.16861724853516 54.75871658325195 C 18.29518890380859 56.52628707885742 3.516295671463013 58.92839431762695 0.5552957653999329 61.52310943603516 L 0.5544029474258423 61.52400207519531 Z" stroke="none" fill="#dfdfdf"/></g></g></g></g></svg>