<svg width="27" height="27" viewBox="0 0 27 27" fill="none" xmlns="http://www.w3.org/2000/svg">
<path d="M22 0H5C2.23858 0 0 2.23858 0 5V22C0 24.7614 2.23858 27 5 27H22C24.7614 27 27 24.7614 27 22V5C27 2.23858 24.7614 0 22 0Z" fill="black"/>
<path d="M22 0.5H5C2.51472 0.5 0.5 2.51472 0.5 5V22C0.5 24.4853 2.51472 26.5 5 26.5H22C24.4853 26.5 26.5 24.4853 26.5 22V5C26.5 2.51472 24.4853 0.5 22 0.5Z" stroke="#DFDFDF"/>
<path fill-rule="evenodd" clip-rule="evenodd" d="M9.98379 22.5688C12.9214 22.5688 15.3028 20.1874 15.3028 17.2498C15.3028 14.3122 12.9214 11.9308 9.98379 11.9308C7.04619 11.9308 4.66479 14.3122 4.66479 17.2498C4.66479 20.1874 7.04619 22.5688 9.98379 22.5688ZM9.98379 21.2391C12.187 21.2391 13.973 19.453 13.973 17.2498C13.973 15.0466 12.187 13.2606 9.98379 13.2606C7.78059 13.2606 5.99454 15.0466 5.99454 17.2498C5.99454 19.453 7.78059 21.2391 9.98379 21.2391Z" fill="#C4C4C4"/>
<rect x="4" y="18.5796" width="2.6595" height="1.32975" transform="rotate(-90 4 18.5796)" fill="#C4C4C4"/>
<rect x="14.6379" y="18.5796" width="2.6595" height="1.32975" transform="rotate(-90 14.6379 18.5796)" fill="#C4C4C4"/>
<rect x="8.65405" y="11" width="2.6595" height="1.32975" fill="#C4C4C4"/>
<rect x="4.61572" y="13.7977" width="2.6595" height="1.32975" transform="rotate(-45 4.61572 13.7977)" fill="#C4C4C4"/>
<rect x="13.5754" y="11.9681" width="2.6595" height="1.32975" transform="rotate(45 13.5754 11.9681)" fill="#C4C4C4"/>
<rect x="11.4175" y="23.3667" width="2.6595" height="1.32975" transform="rotate(-180 11.4175 23.3667)" fill="#C4C4C4"/>
<rect x="15.4559" y="20.569" width="2.6595" height="1.32975" transform="rotate(135 15.4559 20.569)" fill="#C4C4C4"/>
<rect x="6.49622" y="22.3986" width="2.6595" height="1.32975" transform="rotate(-135 6.49622 22.3986)" fill="#C4C4C4"/>
<path fill-rule="evenodd" clip-rule="evenodd" d="M11 8.80001C12.4728 8.80001 13.6667 7.6061 13.6667 6.13334C13.6667 4.66058 12.4728 3.46667 11 3.46667C9.52728 3.46667 8.33337 4.66058 8.33337 6.13334C8.33337 7.6061 9.52728 8.80001 11 8.80001ZM11.0001 8.13334C12.1046 8.13334 13.0001 7.23791 13.0001 6.13334C13.0001 5.02877 12.1046 4.13334 11.0001 4.13334C9.89549 4.13334 9.00006 5.02877 9.00006 6.13334C9.00006 7.23791 9.89549 8.13334 11.0001 8.13334Z" fill="#C4C4C4"/>
<rect x="8" y="6.8" width="1.33333" height="0.666667" transform="rotate(-90 8 6.8)" fill="#C4C4C4"/>
<rect x="13.3334" y="6.8" width="1.33333" height="0.666667" transform="rotate(-90 13.3334 6.8)" fill="#C4C4C4"/>
<rect x="10.3334" y="3" width="1.33333" height="0.666667" fill="#C4C4C4"/>
<rect x="8.30872" y="4.4026" width="1.33333" height="0.666667" transform="rotate(-45 8.30872 4.4026)" fill="#C4C4C4"/>
<rect x="12.8007" y="3.48535" width="1.33333" height="0.666667" transform="rotate(45 12.8007 3.48535)" fill="#C4C4C4"/>
<rect x="11.7188" y="9.20001" width="1.33333" height="0.666667" transform="rotate(-180 11.7188 9.20001)" fill="#C4C4C4"/>
<rect x="13.7434" y="7.79741" width="1.33333" height="0.666667" transform="rotate(135 13.7434 7.79741)" fill="#C4C4C4"/>
<rect x="9.25146" y="8.71466" width="1.33333" height="0.666667" transform="rotate(-135 9.25146 8.71466)" fill="#C4C4C4"/>
<path fill-rule="evenodd" clip-rule="evenodd" d="M19.5 13.7C21.7091 13.7 23.5 11.9092 23.5 9.70001C23.5 7.49087 21.7091 5.70001 19.5 5.70001C17.2909 5.70001 15.5 7.49087 15.5 9.70001C15.5 11.9092 17.2909 13.7 19.5 13.7ZM19.5 12.7C21.1569 12.7 22.5 11.3569 22.5 9.70001C22.5 8.04316 21.1569 6.70001 19.5 6.70001C17.8431 6.70001 16.5 8.04316 16.5 9.70001C16.5 11.3569 17.8431 12.7 19.5 12.7Z" fill="#C4C4C4"/>
<rect x="15" y="10.7" width="2" height="1" transform="rotate(-90 15 10.7)" fill="#C4C4C4"/>
<rect x="23" y="10.7" width="2" height="1" transform="rotate(-90 23 10.7)" fill="#C4C4C4"/>
<rect x="18.5" y="5" width="2" height="1" fill="#C4C4C4"/>
<rect x="15.463" y="7.10391" width="2" height="1" transform="rotate(-45 15.463 7.10391)" fill="#C4C4C4"/>
<rect x="22.2009" y="5.72803" width="2" height="1" transform="rotate(45 22.2009 5.72803)" fill="#C4C4C4"/>
<rect x="20.5781" y="14.3" width="2" height="1" transform="rotate(-180 20.5781 14.3)" fill="#C4C4C4"/>
<rect x="23.6151" y="12.1961" width="2" height="1" transform="rotate(135 23.6151 12.1961)" fill="#C4C4C4"/>
<rect x="16.8772" y="13.572" width="2" height="1" transform="rotate(-135 16.8772 13.572)" fill="#C4C4C4"/>
</svg>
