<svg width="27" height="27" viewBox="0 0 27 27" fill="none" xmlns="http://www.w3.org/2000/svg">
<path d="M22 0H5C2.23858 0 0 2.23858 0 5V22C0 24.7614 2.23858 27 5 27H22C24.7614 27 27 24.7614 27 22V5C27 2.23858 24.7614 0 22 0Z" fill="black"/>
<path d="M22 0.5H5C2.51472 0.5 0.5 2.51472 0.5 5V22C0.5 24.4853 2.51472 26.5 5 26.5H22C24.4853 26.5 26.5 24.4853 26.5 22V5C26.5 2.51472 24.4853 0.5 22 0.5Z" stroke="#DFDFDF"/>
<path d="M10.717 11.102L17.5267 7.48506L18.1393 8.63826L11.3296 12.2552L10.717 11.102Z" fill="#E1E1E1"/>
<path d="M10.447 15.5L18.1397 19.5859L17.5272 20.7391L9.83451 16.6532L10.447 15.5Z" fill="#E1E1E1"/>
<path d="M7.697 9.86798C8.53639 9.86798 9.35692 10.1169 10.0548 10.5832C10.7528 11.0496 11.2967 11.7124 11.6179 12.4879C11.9392 13.2634 12.0232 14.1167 11.8595 14.9399C11.6957 15.7632 11.2915 16.5194 10.698 17.1129C10.1044 17.7065 9.34822 18.1107 8.52497 18.2744C7.70171 18.4382 6.84838 18.3541 6.07289 18.0329C5.2974 17.7117 4.63458 17.1677 4.16825 16.4698C3.70191 15.7719 3.453 14.9514 3.453 14.112C3.453 12.9864 3.90014 11.9069 4.69604 11.111C5.49195 10.3151 6.57142 9.86798 7.697 9.86798V9.86798Z" fill="#707070"/>
<path d="M19.737 17.356C20.3824 17.356 21.0132 17.5473 21.5498 17.9059C22.0864 18.2644 22.5046 18.774 22.7516 19.3703C22.9986 19.9665 23.0632 20.6226 22.9373 21.2555C22.8114 21.8885 22.5006 22.4699 22.0443 22.9262C21.5879 23.3826 21.0065 23.6934 20.3736 23.8193C19.7406 23.9452 19.0845 23.8805 18.4883 23.6336C17.8921 23.3866 17.3825 22.9684 17.0239 22.4318C16.6654 21.8952 16.474 21.2643 16.474 20.619C16.474 19.7536 16.8178 18.9236 17.4297 18.3117C18.0416 17.6997 18.8716 17.356 19.737 17.356Z" fill="#EEEEEE"/>
<path d="M19.76 3.38599C20.4011 3.38599 21.0277 3.57607 21.5606 3.93219C22.0936 4.28832 22.509 4.79449 22.7543 5.38671C22.9996 5.97892 23.0638 6.63058 22.9388 7.25927C22.8137 7.88797 22.505 8.46546 22.0518 8.91872C21.5985 9.37198 21.021 9.68066 20.3923 9.80571C19.7636 9.93077 19.112 9.86658 18.5198 9.62128C17.9276 9.37598 17.4214 8.96057 17.0652 8.42759C16.7091 7.89461 16.519 7.268 16.519 6.62699C16.519 5.76742 16.8605 4.94306 17.4683 4.33525C18.0761 3.72745 18.9005 3.38599 19.76 3.38599V3.38599Z" fill="#A2A2A2"/>
</svg>
