<svg xmlns="http://www.w3.org/2000/svg" width="27" height="27" viewBox="0 0 27 27"><g transform="translate(-229.547 -19.665)"><g transform="translate(229.547 19.665)" fill="#c6823e" stroke="#dfdfdf" stroke-width="1"><rect width="27" height="27" rx="5" stroke="none"/><rect x="0.5" y="0.5" width="26" height="26" rx="4.5" fill="none"/></g><g transform="translate(1 1)"><path d="M0,0H7.712V1.306H0Z" transform="matrix(0.883, -0.469, 0.469, 0.883, 239.264, 29.767)" fill="#e1e1e1"/><path d="M0,0H8.712V1.306H0Z" transform="matrix(0.883, 0.469, -0.469, 0.883, 238.994, 34.165)" fill="#e1e1e1"/><path d="M4.244,0A4.244,4.244,0,1,1,0,4.244,4.244,4.244,0,0,1,4.244,0Z" transform="translate(232 28.533)" fill="#707070"/><path d="M3.263,0A3.263,3.263,0,1,1,0,3.263,3.263,3.263,0,0,1,3.263,0Z" transform="translate(245.021 36.021)" fill="#eee"/><path d="M3.241,0A3.241,3.241,0,1,1,0,3.241,3.241,3.241,0,0,1,3.241,0Z" transform="translate(245.066 22.051)" fill="#a2a2a2"/></g></g></svg>