<svg xmlns="http://www.w3.org/2000/svg" xmlns:xlink="http://www.w3.org/1999/xlink" width="27" height="27" viewBox="0 0 27 27"><defs><filter id="a" x="1.787" y="6.116" width="14.043" height="15.515" filterUnits="userSpaceOnUse"><feOffset dx="-1" dy="1" input="SourceAlpha"/><feGaussianBlur stdDeviation="0.5" result="b"/><feFlood flood-color="#a54835"/><feComposite operator="in" in2="b"/><feComposite in="SourceGraphic"/></filter><filter id="c" x="0.5" y="8.5" width="10" height="11" filterUnits="userSpaceOnUse"><feOffset dx="-1" dy="1" input="SourceAlpha"/><feGaussianBlur stdDeviation="0.5" result="d"/><feFlood flood-color="#a54835"/><feComposite operator="in" in2="d"/><feComposite in="SourceGraphic"/></filter></defs><g transform="translate(-229.547 -19.665)"><g transform="translate(229.547 19.665)" fill="#c6823e" stroke="#dfdfdf" stroke-width="1"><rect width="27" height="27" rx="5" stroke="none"/><rect x="0.5" y="0.5" width="26" height="26" rx="4.5" fill="none"/></g><g transform="translate(39.547 -131.335)"><g transform="translate(193.457 170.833) rotate(-90)"><g transform="matrix(0, 1, -1, 0, 19.83, -3.46)" filter="url(#a)"><path d="M12.515,11.043H0L6.258,0Z" transform="translate(4.29 19.13) rotate(-90)" fill="#fff"/></g><path d="M6.96,1.661l-5.555,9.8h11.11L6.96,1.661M6.96,0l6.96,12.283H0Z" fill="#dfdfdf"/></g><g transform="matrix(1, 0, 0, 1, 190, 151)" filter="url(#c)"><g transform="translate(3 9)" fill="#f1cf4a" stroke="#dfdfdf" stroke-width="1"><rect width="7" height="8" stroke="none"/><rect x="0.5" y="0.5" width="6" height="7" fill="none"/></g></g><path d="M0,11.464S2.538,8.6,2.538,5.814,0,0,0,0" transform="translate(210.243 158.141)" fill="none" stroke="#f1cf4a" stroke-width="1"/><path d="M0,8.844S2.538,6.633,2.538,4.485,0,0,0,0" transform="translate(208.605 159.697)" fill="none" stroke="#f1cf4a" stroke-width="1"/><path d="M0,6.551S2.538,4.913,2.538,3.322,0,0,0,0" transform="translate(206.968 161.007)" fill="none" stroke="#f1cf4a" stroke-width="1"/><rect width="25" height="25" transform="translate(191 152)" fill="none"/></g></g></svg>