<svg width="27" height="27" viewBox="0 0 27 27" fill="none" xmlns="http://www.w3.org/2000/svg">
<path d="M22 0H5C2.23858 0 0 2.23858 0 5V22C0 24.7614 2.23858 27 5 27H22C24.7614 27 27 24.7614 27 22V5C27 2.23858 24.7614 0 22 0Z" fill="black"/>
<path d="M22 0.5H5C2.51472 0.5 0.5 2.51472 0.5 5V22C0.5 24.4853 2.51472 26.5 5 26.5H22C24.4853 26.5 26.5 24.4853 26.5 22V5C26.5 2.51472 24.4853 0.5 22 0.5Z" stroke="#707070"/>
<g filter="url(#filter0_d)">
<path d="M15.33 6.618L15.33 19.133L4.28705 12.875L15.33 6.618Z" fill="white"/>
</g>
<path d="M5.11803 12.873L14.918 18.428V7.31799L5.11803 12.873ZM3.45703 12.873L15.74 5.91299V19.833L3.45703 12.873Z" fill="#707070"/>
<g filter="url(#filter1_d)">
<path d="M10 9H3V17H10V9Z" fill="#707070"/>
<path d="M9.5 9.5H3.5V16.5H9.5V9.5Z" stroke="#707070"/>
</g>
<path d="M20.243 18.605C20.243 18.605 22.781 15.741 22.781 12.955C22.781 10.169 20.243 7.14101 20.243 7.14101" stroke="#707070"/>
<path d="M18.605 17.541C18.605 17.541 21.143 15.33 21.143 13.182C21.143 11.034 18.605 8.69701 18.605 8.69701" stroke="#707070"/>
<path d="M16.968 16.558C16.968 16.558 19.506 14.92 19.506 13.329C19.506 11.738 16.968 10.007 16.968 10.007" stroke="#707070"/>
<defs>
<filter id="filter0_d" x="2.28705" y="6.618" width="13.043" height="14.515" filterUnits="userSpaceOnUse" color-interpolation-filters="sRGB">
<feFlood flood-opacity="0" result="BackgroundImageFix"/>
<feColorMatrix in="SourceAlpha" type="matrix" values="0 0 0 0 0 0 0 0 0 0 0 0 0 0 0 0 0 0 127 0"/>
<feOffset dx="-1" dy="1"/>
<feGaussianBlur stdDeviation="0.5"/>
<feColorMatrix type="matrix" values="0 0 0 0 0.647059 0 0 0 0 0.282353 0 0 0 0 0.207843 0 0 0 1 0"/>
<feBlend mode="normal" in2="BackgroundImageFix" result="effect1_dropShadow"/>
<feBlend mode="normal" in="SourceGraphic" in2="effect1_dropShadow" result="shape"/>
</filter>
<filter id="filter1_d" x="1" y="9" width="9" height="10" filterUnits="userSpaceOnUse" color-interpolation-filters="sRGB">
<feFlood flood-opacity="0" result="BackgroundImageFix"/>
<feColorMatrix in="SourceAlpha" type="matrix" values="0 0 0 0 0 0 0 0 0 0 0 0 0 0 0 0 0 0 127 0"/>
<feOffset dx="-1" dy="1"/>
<feGaussianBlur stdDeviation="0.5"/>
<feColorMatrix type="matrix" values="0 0 0 0 0.647059 0 0 0 0 0.282353 0 0 0 0 0.207843 0 0 0 1 0"/>
<feBlend mode="normal" in2="BackgroundImageFix" result="effect1_dropShadow"/>
<feBlend mode="normal" in="SourceGraphic" in2="effect1_dropShadow" result="shape"/>
</filter>
</defs>
</svg>
