<svg xmlns="http://www.w3.org/2000/svg" width="30" height="30" viewBox="0 0 30 30"><g transform="translate(-191 -152)"><g transform="translate(194 175) rotate(-90)" fill="#fff"><path d="M 16.1419677734375 14.5 L 0.8580323457717896 14.5 L 8.5 1.014174699783325 L 16.1419677734375 14.5 Z" stroke="none"/><path d="M 8.5 2.028339385986328 L 1.716058731079102 14 L 15.2839412689209 14 L 8.5 2.028339385986328 M 8.5 0 L 17 15 L 0 15 L 8.5 0 Z" stroke="none" fill="#707070"/></g><g transform="translate(194 162)" fill="#fff" stroke="#707070" stroke-width="1"><rect width="8" height="9" stroke="none"/><rect x="0.5" y="0.5" width="7" height="8" fill="none"/></g><path d="M0,14s3.1-3.5,3.1-6.9S0,0,0,0" transform="translate(214.5 159.5)" fill="none" stroke="#707070" stroke-width="1"/><path d="M0,10.8S3.1,8.1,3.1,5.477,0,0,0,0" transform="translate(212.5 161.4)" fill="none" stroke="#707070" stroke-width="1"/><path d="M0,8S3.1,6,3.1,4.057,0,0,0,0" transform="translate(210.5 163)" fill="none" stroke="#707070" stroke-width="1"/><rect width="30" height="30" transform="translate(191 152)" fill="none"/></g></svg>